<?xml version="1.0" encoding="UTF-8"?>
<svg id="Capa_1" data-name="Capa 1" xmlns="http://www.w3.org/2000/svg" xmlns:xlink="http://www.w3.org/1999/xlink" viewBox="0 0 4000 4000">
  <defs>
    <style>
      .cls-1 {
        fill: #fff;
      }

      .cls-2 {
        fill: url(#Degradado_sin_nombre_82);
      }

      .cls-3 {
        fill: url(#Degradado_sin_nombre_81);
      }
    </style>
    <linearGradient id="Degradado_sin_nombre_82" data-name="Degradado sin nombre 82" x1="307" y1="2156.05" x2="1579.43" y2="2156.05" gradientUnits="userSpaceOnUse">
      <stop offset="0" stop-color="#0571de"/>
      <stop offset=".11" stop-color="#0973da" stop-opacity=".87"/>
      <stop offset=".55" stop-color="#177ace" stop-opacity=".41"/>
      <stop offset=".86" stop-color="#217fc6" stop-opacity=".11"/>
      <stop offset="1" stop-color="#2581c4" stop-opacity="0"/>
    </linearGradient>
    <linearGradient id="Degradado_sin_nombre_81" data-name="Degradado sin nombre 81" x1="1445.53" y1="1721.49" x2="3553" y2="1721.49" gradientUnits="userSpaceOnUse">
      <stop offset="0" stop-color="#ffef26"/>
      <stop offset=".01" stop-color="#fee921"/>
      <stop offset=".07" stop-color="#fdd70e"/>
      <stop offset=".13" stop-color="#fdcb03"/>
      <stop offset=".19" stop-color="#fdc800"/>
      <stop offset=".4" stop-color="#f18f34"/>
      <stop offset=".63" stop-color="#e95f32"/>
      <stop offset=".84" stop-color="#e3312d"/>
    </linearGradient>
  </defs>
  <circle class="cls-1" cx="2000" cy="2000" r="2000"/>
  <path class="cls-2" d="m1468.12,1482.73c-11.06,22.94-22.7,39.09-34.89,48.41-12.19,9.32-27.68,13.95-46.5,13.95-19.92,0-41.25-7.12-63.95-21.47-22.7-14.35-49.01-30.45-78.88-48.41-29.92-17.91-63.99-34.06-102.17-48.41-38.23-14.35-83.35-21.52-135.38-21.52-80.85,0-144.24,22.26-190.19,66.72-45.95,44.46-68.93,102.53-68.93,174.22,0,47.34,11.88,87.17,35.68,119.42,23.8,32.26,55.36,60.56,94.69,84.96,39.32,24.4,83.9,46.27,133.74,65.59,49.83,19.38,100.49,40.56,152.01,63.49,51.48,22.94,102.13,49.15,151.97,78.52,49.83,29.38,94.41,66.66,133.74,111.85,39.29,45.19,70.85,99.31,94.69,162.41,23.8,63.1,35.72,139.08,35.72,228,0,106.15-14.7,204.05-44.03,293.64-29.37,89.65-72.85,167.1-130.4,232.35-57.6,65.25-128.76,116.15-213.44,152.7-84.73,36.55-182.47,54.85-293.19,54.85-58.69,0-116.01-6.84-171.92-20.39-55.95-13.67-109.66-32.6-161.14-57-51.52-24.4-99.12-53.1-142.87-86.09-43.76-32.99-82.22-68.81-115.43-107.56l94.69-202.18c12.15-24.4,26.54-43.05,43.17-55.93,16.62-12.88,37.68-19.38,63.16-19.38s49.52,9.32,72.22,27.96c22.7,18.64,49.01,38.75,78.92,60.22,29.88,21.52,65.04,41.58,105.47,60.22,40.42,18.64,91.63,27.96,153.65,27.96,48.73,0,90.53-7.51,125.42-22.54,34.89-15.03,63.67-34.74,86.37-59.15,22.7-24.4,39.32-52.71,49.83-85.02,10.51-32.26,15.8-65.59,15.8-99.99,0-51.63-11.92-93.94-35.72-126.94-23.84-32.99-55.4-61.63-94.69-86.04-39.32-24.4-84.18-46.27-134.56-65.64-50.42-19.32-101.9-40.5-154.48-63.44-52.62-22.94-104.1-49.83-154.48-80.67-50.42-30.84-95.27-69.88-134.56-117.22-39.32-47.34-70.89-105.41-94.69-174.27-23.84-68.8-35.72-152.02-35.72-249.52,0-90.33,13.84-176.36,41.52-258.11,27.68-81.74,68.38-153.09,122.09-214.04,53.71-60.95,120.72-109.71,201.02-146.31,80.3-36.55,173.02-54.85,278.21-54.85,117.39,0,224.23,25.14,320.6,75.3,96.37,50.16,176.67,116.15,240.89,197.89l-93.04,191.45Z"/>
  <path class="cls-3" d="m3553,3294h-310.65c-34.87,0-63.24-12.68-85.14-38.04-21.93-25.36-38.36-56.94-49.28-94.64l-161.32-641.58h-894.69l-161.28,641.58c-7.97,33.36-23.41,63.86-46.32,91.39-22.91,27.53-51.29,41.29-85.14,41.29h-313.65L2295.38,148.98h409.25l848.37,3145.02Zm-709.47-1187.55l-262.85-1046.13c-12.97-46.38-26.4-101.49-40.33-165.29-13.96-63.8-27.89-132.68-41.85-206.64-12.94,73.96-26.37,143.19-40.33,207.73-13.96,64.54-27.39,120.69-40.29,168.55l-261.4,1041.79h687.05Z"/>
</svg>