<?xml version="1.0" encoding="UTF-8"?><svg xmlns="http://www.w3.org/2000/svg" xmlns:xlink="http://www.w3.org/1999/xlink" viewBox="0 0 4000 4000"><defs><style>.cls-1{fill:url(#Degradado_sin_nombre_81);}.cls-2{fill:url(#Degradado_sin_nombre_82);}.cls-3{fill:#fff;}</style><linearGradient id="Degradado_sin_nombre_82" x1="198.07" y1="1818.34" x2="1849.84" y2="1818.34" gradientUnits="userSpaceOnUse"><stop offset="0" stop-color="#0571de"/><stop offset=".11" stop-color="#0973da" stop-opacity=".87"/><stop offset=".55" stop-color="#177ace" stop-opacity=".41"/><stop offset=".86" stop-color="#217fc6" stop-opacity=".11"/><stop offset="1" stop-color="#2581c4" stop-opacity="0"/></linearGradient><linearGradient id="Degradado_sin_nombre_81" x1="1645.67" y1="1717.9" x2="3573.2" y2="1717.9" gradientUnits="userSpaceOnUse"><stop offset="0" stop-color="#ffef26"/><stop offset=".01" stop-color="#fee921"/><stop offset=".07" stop-color="#fdd70e"/><stop offset=".13" stop-color="#fdcb03"/><stop offset=".19" stop-color="#fdc800"/><stop offset=".4" stop-color="#f18f34"/><stop offset=".63" stop-color="#e95f32"/><stop offset=".84" stop-color="#e3312d"/></linearGradient></defs><g id="Capa_2"><circle class="cls-3" cx="2000" cy="2000" r="2000"/></g><g id="Capa_1"><path class="cls-2" d="M1705.35,1030.2c-14.35,26.85-29.47,45.76-45.3,56.67-15.83,10.91-35.93,16.33-60.36,16.33-25.86,0-53.54-8.33-83.01-25.13-29.47-16.8-63.62-35.64-102.4-56.67-38.83-20.96-83.06-39.87-132.63-56.67-49.62-16.8-108.2-25.19-175.74-25.19-104.95,0-187.25,26.05-246.89,78.09-59.65,52.04-89.47,120.02-89.47,203.93,0,55.41,15.42,102.03,46.32,139.79,30.89,37.76,71.86,70.89,122.91,99.45,51.05,28.57,108.92,54.16,173.61,76.77,64.69,22.68,130.45,47.48,197.32,74.32,66.83,26.85,132.58,57.53,197.27,91.91,64.69,34.38,122.56,78.03,173.61,130.93,51,52.9,91.97,116.25,122.91,190.11,30.89,73.86,46.37,162.8,46.37,266.88,0,124.25-19.09,238.84-57.16,343.72-38.12,104.94-94.56,195.6-169.28,271.97-74.77,76.37-167.14,135.95-277.08,178.74-109.99,42.78-236.87,64.21-380.6,64.21-76.19,0-150.6-8-223.18-23.87-72.63-16-142.36-38.15-209.18-66.72-66.88-28.57-128.66-62.16-185.46-100.77-56.8-38.62-106.73-80.54-149.84-125.9l122.91-236.66c15.78-28.57,34.46-50.39,56.04-65.46,21.58-15.08,48.91-22.68,81.99-22.68s64.28,10.91,93.75,32.73c29.47,21.82,63.62,45.36,102.45,70.49,38.78,25.19,84.44,48.67,136.91,70.49,52.47,21.82,118.94,32.73,199.46,32.73,63.26,0,117.52-8.79,162.82-26.38,45.3-17.59,82.65-40.67,112.12-69.23,29.47-28.57,51.05-61.69,64.69-99.52,13.64-37.76,20.51-76.77,20.51-117.04,0-60.44-15.47-109.97-46.37-148.58-30.94-38.62-71.92-72.14-122.91-100.71-51.05-28.57-109.27-54.16-174.67-76.84-65.45-22.61-132.28-47.41-200.53-74.26-68.3-26.85-135.13-58.32-200.53-94.43-65.45-36.1-123.68-81.8-174.67-137.21-51.05-55.41-92.02-123.39-122.91-203.99-30.94-80.54-46.37-177.94-46.37-292.07,0-105.73,17.97-206.44,53.9-302.12,35.93-95.68,88.76-179.2,158.49-250.55,69.73-71.35,156.71-128.41,260.94-171.26,104.23-42.78,224.6-64.21,361.16-64.21,152.38,0,291.07,29.43,416.17,88.14,125.1,58.72,229.34,135.95,312.7,231.63l-120.78,224.1Z"/><path class="cls-1" d="M3573.2,3274.11h-284.13c-31.89,0-57.84-12.55-77.87-37.64-20.06-25.1-35.08-56.35-45.08-93.66l-147.54-634.93h-818.3l-147.51,634.93c-7.29,33.01-21.41,63.19-42.37,90.44-20.96,27.24-46.91,40.87-77.87,40.87h-286.87L2422.95,161.7h374.31l775.93,3112.41ZM2924.3,2098.87l-240.41-1035.28c-11.87-45.9-24.15-100.44-36.89-163.58-12.77-63.14-25.5-131.3-38.27-204.5-11.83,73.2-24.12,141.7-36.89,205.58-12.77,63.87-25.05,119.43-36.85,166.8l-239.08,1030.99h628.39Z"/></g></svg>