<?xml version="1.0" encoding="UTF-8"?>
<svg id="Capa_1" data-name="Capa 1" xmlns="http://www.w3.org/2000/svg" viewBox="0 0 4000 4000">
  <defs>
    <style>
      .cls-1 {
        fill: #d6d4d4;
      }

      .cls-2 {
        fill: #f9f7f7;
      }

      .cls-3 {
        fill: #a3a3a3;
      }

      .cls-4 {
        fill: #fff;
        stroke: #020202;
        stroke-miterlimit: 10;
      }
    </style>
  </defs>
  <path class="cls-1" d="m1430.84,1696.33c-13.62,29.17-27.97,49.72-43,61.57-15.03,11.85-34.11,17.75-57.3,17.75-24.54,0-50.83-9.05-78.8-27.3-27.97-18.25-60.39-38.73-97.21-61.57-36.86-22.78-78.85-43.32-125.91-61.57-47.11-18.25-102.72-27.37-166.83-27.37-99.62,0-177.75,28.31-234.37,84.85-56.62,56.54-84.94,130.4-84.94,221.58,0,60.21,14.64,110.86,43.97,151.89,29.33,41.03,68.22,77.02,116.68,108.06,48.46,31.04,103.39,58.84,164.8,83.42,61.41,24.64,123.83,51.58,187.32,80.76,63.44,29.17,125.86,62.51,187.27,99.87,61.41,37.36,116.34,84.78,164.8,142.26,48.41,57.48,87.3,126.31,116.68,206.56,29.33,80.25,44.01,176.89,44.01,289.98,0,135-18.12,259.52-54.26,373.47-36.19,114.02-89.77,212.53-160.69,295.51-70.97,82.98-158.66,147.72-263.02,194.21-104.41,46.49-224.86,69.76-361.3,69.76-72.33,0-142.96-8.69-211.86-25.94-68.94-17.39-135.14-41.46-198.57-72.49-63.49-31.04-122.14-67.54-176.06-109.5-53.92-41.96-101.32-87.51-142.24-136.8l116.68-257.14c14.98-31.04,32.71-54.75,53.19-71.13,20.49-16.38,46.43-24.64,77.83-24.64s61.02,11.85,89,35.56c27.97,23.71,60.39,49.29,97.26,76.59,36.82,27.37,80.15,52.88,129.97,76.59,49.81,23.71,112.91,35.56,189.34,35.56,60.05,0,111.56-9.56,154.56-28.67,43-19.11,78.46-44.19,106.44-75.23,27.97-31.04,48.46-67.03,61.41-108.13,12.95-41.03,19.47-83.42,19.47-127.17,0-65.67-14.69-119.48-44.01-161.44-29.38-41.96-68.27-78.39-116.68-109.42-48.46-31.04-103.73-58.84-165.82-83.49-62.13-24.57-125.57-51.52-190.36-80.69-64.84-29.17-128.28-63.37-190.36-102.6-62.13-39.23-117.4-88.88-165.82-149.08-48.46-60.21-87.35-134.07-116.68-221.65-29.38-87.51-44.01-193.34-44.01-317.35,0-114.89,17.06-224.31,51.17-328.27,34.11-103.96,84.26-194.71,150.45-272.23,66.19-77.52,148.76-139.53,247.71-186.09,98.95-46.49,213.21-69.76,342.84-69.76,144.65,0,276.31,31.97,395.07,95.77,118.76,63.8,217.71,147.72,296.84,251.68l-114.65,243.49Z"/>
  <path class="cls-3" d="m4000,4000h-382.81c-42.96,0-77.93-16.13-104.91-48.38-27.02-32.25-47.26-72.42-60.73-120.37l-198.79-816h-1102.51l-198.75,816c-9.82,42.42-28.85,81.21-57.08,116.23-28.24,35.01-63.21,52.52-104.91,52.52h-386.5L2450.25,0h504.32l1045.43,4000Zm-874.27-1510.39l-323.9-1330.52c-15.99-58.99-32.54-129.09-49.7-210.23-17.2-81.14-34.36-168.75-51.57-262.82-15.94,94.07-32.49,182.12-49.7,264.2-17.2,82.09-33.75,153.49-49.65,214.37l-322.12,1325h846.64Z"/>
  <g>
    <g>
      <path class="cls-4" d="m710.41,2593.14c-1.48,2.17-3.03,3.7-4.65,4.58-1.62.88-3.69,1.32-6.2,1.32-2.66,0-5.5-.68-8.52-2.03-3.03-1.35-6.53-2.88-10.51-4.58-3.98-1.69-8.52-3.22-13.61-4.58-5.09-1.35-11.1-2.03-18.04-2.03-10.77,0-19.22,2.1-25.34,6.3-6.12,4.2-9.18,9.69-9.18,16.47,0,4.47,1.58,8.24,4.76,11.29,3.17,3.05,7.38,5.73,12.61,8.03,5.24,2.31,11.18,4.37,17.81,6.2s13.39,3.83,20.25,6c6.86,2.17,13.61,4.65,20.25,7.42,6.64,2.78,12.58,6.3,17.81,10.57,5.24,4.27,9.44,9.39,12.61,15.35,3.17,5.97,4.76,13.15,4.76,21.55,0,10.03-1.96,19.28-5.86,27.75-3.91,8.47-9.7,15.79-17.37,21.96-7.67,6.17-17.15,10.98-28.44,14.44-11.29,3.46-24.31,5.18-39.06,5.18-7.82,0-15.46-.64-22.9-1.93-7.45-1.29-14.61-3.08-21.47-5.39-6.86-2.3-13.21-5.01-19.03-8.13-5.83-3.12-10.95-6.51-15.38-10.17l12.61-19.11c1.62-2.3,3.54-4.07,5.75-5.29,2.21-1.22,5.01-1.83,8.41-1.83s6.6.88,9.63,2.64c3.02,1.76,6.53,3.66,10.51,5.69s8.67,3.93,14.05,5.69c5.38,1.76,12.21,2.64,20.47,2.64,6.49,0,12.06-.71,16.71-2.14,4.65-1.42,8.48-3.29,11.51-5.59,3.02-2.3,5.24-4.98,6.64-8.03,1.4-3.05,2.1-6.2,2.1-9.46,0-4.88-1.59-8.88-4.76-12-3.17-3.12-7.38-5.83-12.61-8.13-5.24-2.3-11.21-4.37-17.93-6.2-6.72-1.83-13.58-3.83-20.58-6-7.01-2.17-13.87-4.71-20.58-7.62-6.71-2.91-12.69-6.61-17.93-11.08-5.24-4.47-9.44-9.96-12.61-16.47-3.17-6.51-4.76-14.37-4.76-23.59,0-8.54,1.84-16.67,5.53-24.4,3.69-7.73,9.11-14.47,16.27-20.23,7.15-5.76,16.08-10.37,26.78-13.83,10.7-3.46,23.05-5.18,37.07-5.18,15.64,0,29.88,2.37,42.71,7.12,12.84,4.75,23.53,10.98,32.09,18.71l-12.39,18.1Z"/>
      <path class="cls-4" d="m821.06,2574.84c8.85-7.59,18.59-13.76,29.21-18.5,10.62-4.74,23.09-7.12,37.4-7.12,12.39,0,23.38,1.93,32.97,5.79,9.59,3.86,17.59,9.29,24.01,16.27,6.42,6.98,11.29,15.32,14.61,25.01,3.32,9.69,4.98,20.37,4.98,32.03v132.78h-54.66v-132.78c0-12.74-3.17-22.6-9.52-29.58-6.35-6.98-16.01-10.47-28.99-10.47-9.44,0-18.3,1.97-26.56,5.9-8.26,3.93-16.08,9.29-23.46,16.06v150.87h-54.66v-302.15h54.66v115.9Z"/>
      <path class="cls-4" d="m1080.21,2491.67c0,4.34-.96,8.41-2.88,12.2-1.92,3.8-4.46,7.12-7.64,9.96-3.17,2.85-6.9,5.12-11.18,6.81-4.28,1.7-8.85,2.54-13.72,2.54s-9.18-.85-13.39-2.54c-4.21-1.69-7.86-3.96-10.95-6.81-3.1-2.85-5.57-6.17-7.41-9.96-1.85-3.79-2.77-7.86-2.77-12.2s.92-8.67,2.77-12.61c1.84-3.93,4.32-7.32,7.41-10.17,3.1-2.85,6.75-5.12,10.95-6.81,4.2-1.69,8.67-2.54,13.39-2.54s9.44.85,13.72,2.54c4.28,1.7,8,3.96,11.18,6.81,3.17,2.85,5.72,6.24,7.64,10.17,1.92,3.93,2.88,8.13,2.88,12.61Zm-7.52,60.8v208.62h-54.88v-208.62h54.88Z"/>
      <path class="cls-4" d="m1345.99,2590.09v113.05c0,6.51,1.77,11.59,5.31,15.25,3.54,3.66,8.26,5.49,14.16,5.49,3.39,0,6.23-.37,8.52-1.12,2.29-.74,4.28-1.53,5.98-2.34,1.69-.81,3.21-1.59,4.54-2.34,1.33-.74,2.66-1.12,3.98-1.12,1.62,0,2.95.38,3.98,1.12,1.03.75,2.14,1.87,3.32,3.35l16.38,24.4c-7.97,6.1-17.08,10.71-27.33,13.83-10.26,3.12-20.91,4.68-31.98,4.68-19.77,0-34.97-5.11-45.59-15.35-10.62-10.23-15.93-24.36-15.93-42.39v-116.51h-92.28v171h-54.66v-170.8l-19.7-2.85c-4.28-.81-7.71-2.2-10.29-4.17-2.58-1.96-3.87-4.78-3.87-8.44v-20.54h33.86v-15.45c0-11.93,1.95-22.64,5.86-32.13,3.91-9.49,9.52-17.55,16.82-24.2,7.3-6.64,16.19-11.72,26.67-15.25,10.47-3.52,22.28-5.29,35.41-5.29,10.47,0,20.21,1.29,29.21,3.86l-1.11,25.21c-.15,1.9-.74,3.42-1.77,4.58-1.03,1.15-2.4,2.03-4.09,2.64-1.7.61-3.65,1.02-5.86,1.22-2.21.2-4.57.3-7.08.3-6.49,0-12.28.65-17.37,1.93-5.09,1.29-9.41,3.53-12.95,6.71-3.54,3.19-6.23,7.39-8.08,12.61-1.85,5.22-2.77,11.69-2.77,19.42v13.83h96.49l11.73-57.14c.74-2.71,2.14-4.81,4.21-6.3,2.06-1.49,4.72-2.24,7.97-2.24h28.33v65.68h60.64v35.79h-60.64Z"/>
    </g>
    <g>
      <path class="cls-2" d="m2009.41,2786.21h-37.75c-4.24,0-7.68-1.05-10.34-3.16-2.66-2.1-4.66-4.72-5.99-7.84l-19.6-53.19h-108.7l-19.6,53.19c-.97,2.77-2.84,5.29-5.63,7.57-2.78,2.29-6.23,3.43-10.34,3.43h-38.11l103.26-260.72h49.72l103.08,260.72Zm-86.2-98.44l-31.94-86.73c-1.57-3.85-3.21-8.41-4.9-13.7-1.7-5.29-3.39-11-5.08-17.13-1.57,6.13-3.21,11.87-4.9,17.22-1.7,5.35-3.33,10.01-4.9,13.97l-31.76,86.37h83.48Z"/>
      <path class="cls-2" d="m2143.16,2637.28c-1.21,1.92-2.48,3.28-3.81,4.06-1.33.78-3.03,1.17-5.08,1.17-2.18,0-4.51-.6-6.99-1.8-2.48-1.2-5.35-2.55-8.62-4.06-3.27-1.5-6.99-2.85-11.16-4.06-4.17-1.2-9.1-1.8-14.79-1.8-8.83,0-15.76,1.87-20.78,5.59-5.02,3.73-7.53,8.6-7.53,14.6,0,3.97,1.3,7.3,3.9,10.01,2.6,2.71,6.05,5.08,10.34,7.12,4.29,2.04,9.16,3.88,14.61,5.5,5.45,1.62,10.98,3.4,16.61,5.32,5.62,1.92,11.16,4.12,16.61,6.58,5.44,2.46,10.31,5.59,14.61,9.38,4.29,3.79,7.74,8.32,10.34,13.61,2.6,5.29,3.9,11.66,3.9,19.11,0,8.9-1.61,17.1-4.81,24.61-3.21,7.51-7.96,14-14.25,19.47-6.29,5.47-14.06,9.74-23.32,12.8-9.26,3.07-19.93,4.6-32.03,4.6-6.41,0-12.67-.57-18.78-1.71-6.11-1.14-11.98-2.73-17.6-4.78-5.62-2.04-10.83-4.45-15.61-7.21-4.78-2.76-8.98-5.77-12.61-9.01l10.34-16.95c1.33-2.04,2.9-3.61,4.72-4.69,1.81-1.08,4.11-1.62,6.9-1.62s5.41.78,7.89,2.34c2.48,1.56,5.35,3.25,8.62,5.05,3.27,1.8,7.11,3.49,11.52,5.05,4.41,1.56,10.01,2.34,16.79,2.34,5.32,0,9.89-.63,13.7-1.89,3.81-1.26,6.96-2.91,9.44-4.96,2.48-2.04,4.29-4.42,5.44-7.12,1.15-2.71,1.72-5.5,1.72-8.38,0-4.33-1.3-7.87-3.9-10.64-2.6-2.76-6.05-5.17-10.34-7.21-4.29-2.04-9.2-3.88-14.7-5.5-5.51-1.62-11.13-3.39-16.88-5.32-5.75-1.92-11.37-4.17-16.88-6.76-5.51-2.58-10.41-5.86-14.7-9.83-4.3-3.97-7.74-8.83-10.34-14.6-2.6-5.77-3.9-12.74-3.9-20.92,0-7.57,1.51-14.79,4.54-21.64,3.02-6.85,7.47-12.83,13.34-17.94,5.87-5.11,13.19-9.2,21.96-12.26,8.77-3.07,18.9-4.6,30.4-4.6,12.82,0,24.5,2.1,35.02,6.31,10.53,4.21,19.3,9.74,26.31,16.59l-10.16,16.05Z"/>
      <path class="cls-2" d="m2302.67,2637.28c-1.21,1.92-2.48,3.28-3.81,4.06-1.33.78-3.03,1.17-5.08,1.17-2.18,0-4.51-.6-6.99-1.8-2.48-1.2-5.35-2.55-8.62-4.06-3.27-1.5-6.99-2.85-11.16-4.06-4.17-1.2-9.1-1.8-14.79-1.8-8.83,0-15.76,1.87-20.78,5.59-5.02,3.73-7.53,8.6-7.53,14.6,0,3.97,1.3,7.3,3.9,10.01,2.6,2.71,6.05,5.08,10.34,7.12,4.29,2.04,9.16,3.88,14.61,5.5,5.45,1.62,10.98,3.4,16.61,5.32,5.62,1.92,11.16,4.12,16.61,6.58,5.44,2.46,10.31,5.59,14.61,9.38,4.29,3.79,7.74,8.32,10.34,13.61,2.6,5.29,3.9,11.66,3.9,19.11,0,8.9-1.61,17.1-4.81,24.61-3.21,7.51-7.96,14-14.25,19.47-6.29,5.47-14.06,9.74-23.32,12.8-9.26,3.07-19.93,4.6-32.03,4.6-6.41,0-12.67-.57-18.78-1.71-6.11-1.14-11.98-2.73-17.6-4.78-5.62-2.04-10.83-4.45-15.61-7.21-4.78-2.76-8.98-5.77-12.61-9.01l10.34-16.95c1.33-2.04,2.9-3.61,4.72-4.69,1.81-1.08,4.11-1.62,6.9-1.62s5.41.78,7.89,2.34c2.48,1.56,5.35,3.25,8.62,5.05,3.27,1.8,7.11,3.49,11.52,5.05,4.41,1.56,10.01,2.34,16.79,2.34,5.32,0,9.89-.63,13.7-1.89,3.81-1.26,6.96-2.91,9.44-4.96,2.48-2.04,4.29-4.42,5.44-7.12,1.15-2.71,1.72-5.5,1.72-8.38,0-4.33-1.3-7.87-3.9-10.64-2.6-2.76-6.05-5.17-10.34-7.21-4.29-2.04-9.2-3.88-14.7-5.5-5.51-1.62-11.13-3.39-16.88-5.32-5.75-1.92-11.37-4.17-16.88-6.76-5.51-2.58-10.41-5.86-14.7-9.83-4.29-3.97-7.74-8.83-10.34-14.6-2.6-5.77-3.9-12.74-3.9-20.92,0-7.57,1.51-14.79,4.54-21.64,3.02-6.85,7.47-12.83,13.34-17.94,5.87-5.11,13.19-9.2,21.96-12.26,8.77-3.07,18.9-4.6,30.4-4.6,12.82,0,24.5,2.1,35.02,6.31,10.53,4.21,19.3,9.74,26.31,16.59l-10.16,16.05Z"/>
      <path class="cls-2" d="m2401.21,2547.31c0,3.85-.79,7.45-2.36,10.82-1.57,3.37-3.66,6.31-6.26,8.83-2.6,2.52-5.66,4.54-9.16,6.04-3.51,1.5-7.26,2.25-11.25,2.25s-7.53-.75-10.98-2.25c-3.45-1.5-6.44-3.52-8.98-6.04-2.54-2.52-4.57-5.47-6.08-8.83-1.51-3.36-2.27-6.97-2.27-10.82s.75-7.69,2.27-11.18c1.51-3.49,3.54-6.49,6.08-9.02,2.54-2.52,5.54-4.54,8.98-6.04,3.45-1.5,7.11-2.25,10.98-2.25s7.74.75,11.25,2.25c3.51,1.5,6.56,3.52,9.16,6.04,2.6,2.52,4.69,5.53,6.26,9.02,1.57,3.49,2.36,7.21,2.36,11.18Zm-6.17,53.91v184.99h-45.01v-184.99h45.01Z"/>
      <path class="cls-2" d="m2604.09,2607.53v16.59c0,5.29-3.21,8.54-9.62,9.74l-16.7,3.06c2.54,6.37,3.81,13.34,3.81,20.92,0,9.14-1.85,17.4-5.53,24.79-3.69,7.39-8.8,13.67-15.34,18.84-6.53,5.17-14.24,9.17-23.14,11.99-8.89,2.83-18.48,4.24-28.76,4.24-3.63,0-7.14-.18-10.53-.54-3.39-.36-6.71-.84-9.98-1.44-5.81,3.49-8.71,7.39-8.71,11.72,0,3.73,1.72,6.46,5.17,8.2,3.45,1.74,8.01,2.97,13.7,3.7,5.69.72,12.16,1.17,19.42,1.35,7.26.18,14.7.57,22.32,1.17,7.62.6,15.06,1.65,22.32,3.16,7.26,1.5,13.73,3.88,19.42,7.12,5.69,3.25,10.25,7.66,13.7,13.25,3.45,5.59,5.17,12.77,5.17,21.55,0,8.17-2.03,16.11-6.08,23.8-4.05,7.69-9.92,14.54-17.6,20.55-7.68,6.01-17.12,10.85-28.31,14.51-11.19,3.67-23.93,5.5-38.2,5.5s-26.25-1.35-36.66-4.06c-10.41-2.71-19.05-6.31-25.95-10.82s-12.04-9.71-15.43-15.6c-3.39-5.89-5.08-12.02-5.08-18.39,0-8.66,2.63-15.9,7.89-21.73,5.26-5.83,12.49-10.49,21.69-13.97-4.96-2.52-8.89-5.89-11.79-10.1-2.9-4.21-4.36-9.74-4.36-16.59,0-2.76.51-5.62,1.54-8.56,1.03-2.94,2.54-5.86,4.54-8.74s4.51-5.62,7.53-8.2c3.02-2.58,6.59-4.9,10.71-6.94-9.44-5.05-16.85-11.78-22.23-20.19-5.38-8.41-8.08-18.27-8.08-29.57,0-9.13,1.84-17.4,5.54-24.79,3.69-7.39,8.83-13.7,15.43-18.93,6.59-5.23,14.39-9.22,23.41-11.99,9.01-2.76,18.84-4.15,29.49-4.15,7.98,0,15.48.81,22.5,2.43,7.02,1.62,13.43,4,19.24,7.12h53.54Zm-44.64,186.97c0-3.61-1.09-6.55-3.27-8.83s-5.14-4.06-8.89-5.32c-3.75-1.26-8.14-2.19-13.16-2.79-5.02-.6-10.34-1.05-15.97-1.35-5.62-.3-11.43-.57-17.42-.81-5.99-.24-11.83-.72-17.51-1.44-4.96,2.77-8.98,6.01-12.07,9.74-3.08,3.72-4.63,8.05-4.63,12.98,0,3.25.82,6.28,2.45,9.11,1.63,2.82,4.23,5.26,7.8,7.3,3.57,2.04,8.19,3.63,13.88,4.78,5.68,1.14,12.64,1.71,20.87,1.71s15.54-.63,21.59-1.89c6.05-1.26,11.04-3.01,14.97-5.23,3.93-2.23,6.8-4.87,8.62-7.93s2.72-6.4,2.72-10.01Zm-50.63-105.3c5.56,0,10.4-.75,14.52-2.25,4.11-1.5,7.53-3.58,10.25-6.22,2.72-2.64,4.78-5.83,6.17-9.56,1.39-3.72,2.09-7.81,2.09-12.26,0-9.13-2.75-16.38-8.26-21.73-5.51-5.35-13.76-8.02-24.77-8.02s-19.27,2.68-24.77,8.02c-5.51,5.35-8.26,12.59-8.26,21.73,0,4.33.69,8.36,2.09,12.08,1.39,3.73,3.45,6.94,6.17,9.65,2.72,2.7,6.17,4.81,10.34,6.31,4.17,1.5,8.98,2.25,14.43,2.25Z"/>
      <path class="cls-2" d="m2674.32,2623.94c3.75-3.72,7.71-7.18,11.89-10.37,4.17-3.18,8.59-5.89,13.25-8.11,4.66-2.22,9.65-3.97,14.97-5.23,5.32-1.26,11.13-1.89,17.42-1.89,10.16,0,19.17,1.71,27.04,5.14,7.86,3.43,14.43,8.23,19.69,14.42,5.26,6.19,9.26,13.58,11.98,22.18,2.72,8.6,4.08,18.06,4.08,28.4v117.74h-44.82v-117.74c0-11.3-2.6-20.04-7.8-26.23-5.2-6.19-13.13-9.29-23.77-9.29-7.74,0-15,1.74-21.78,5.23-6.78,3.49-13.19,8.23-19.24,14.24v133.78h-44.82v-184.99h27.4c5.81,0,9.62,2.7,11.43,8.11l3.08,14.6Z"/>
      <path class="cls-2" d="m2837.1,2786.21v-184.99h27.4c5.81,0,9.62,2.7,11.43,8.11l2.9,13.7c3.27-3.61,6.68-6.91,10.25-9.92,3.57-3,7.38-5.59,11.43-7.75,4.05-2.16,8.41-3.88,13.06-5.14,4.66-1.26,9.77-1.89,15.34-1.89,11.73,0,21.38,3.16,28.94,9.47s13.22,14.69,16.97,25.15c2.9-6.13,6.53-11.39,10.89-15.78,4.36-4.39,9.13-7.96,14.34-10.73,5.2-2.76,10.73-4.81,16.6-6.13,5.87-1.32,11.77-1.98,17.7-1.98,10.28,0,19.42,1.56,27.4,4.69,7.98,3.13,14.7,7.69,20.14,13.7,5.44,6.01,9.59,13.34,12.43,22,2.84,8.65,4.26,18.57,4.26,29.75v117.74h-44.82v-117.74c0-11.78-2.6-20.64-7.8-26.59-5.2-5.95-12.82-8.92-22.87-8.92-4.6,0-8.86.78-12.79,2.34-3.93,1.56-7.38,3.82-10.35,6.76-2.96,2.95-5.29,6.64-6.99,11.09-1.7,4.45-2.54,9.56-2.54,15.33v117.74h-45v-117.74c0-12.38-2.51-21.39-7.53-27.04-5.02-5.65-12.37-8.47-22.05-8.47-6.53,0-12.61,1.59-18.24,4.78-5.62,3.19-10.86,7.54-15.7,13.07v135.41h-44.82Z"/>
      <path class="cls-2" d="m3175.54,2699.3c.73,9.5,2.42,17.7,5.08,24.61,2.66,6.91,6.17,12.62,10.53,17.13,4.36,4.51,9.53,7.88,15.52,10.1,5.99,2.23,12.61,3.33,19.87,3.33s13.52-.84,18.78-2.52c5.26-1.68,9.86-3.54,13.79-5.59,3.93-2.04,7.38-3.9,10.34-5.59,2.96-1.68,5.84-2.52,8.62-2.52,3.75,0,6.53,1.38,8.35,4.15l12.88,16.23c-4.96,5.77-10.53,10.61-16.7,14.51-6.17,3.91-12.61,7.03-19.33,9.38s-13.55,4-20.51,4.96c-6.96.96-13.7,1.44-20.23,1.44-12.95,0-24.98-2.13-36.11-6.4-11.13-4.27-20.81-10.58-29.04-18.93-8.23-8.35-14.7-18.69-19.42-31.01-4.72-12.32-7.08-26.59-7.08-42.82,0-12.62,2.05-24.49,6.17-35.61,4.11-11.12,10.01-20.79,17.69-29.03,7.68-8.23,17.06-14.75,28.13-19.56,11.07-4.81,23.56-7.21,37.47-7.21,11.73,0,22.56,1.87,32.48,5.59,9.92,3.73,18.45,9.17,25.59,16.32,7.14,7.15,12.73,15.93,16.79,26.32,4.05,10.4,6.08,22.27,6.08,35.61,0,6.73-.73,11.27-2.18,13.61-1.45,2.34-4.24,3.52-8.35,3.52h-115.24Zm85.47-26.87c0-5.77-.82-11.21-2.45-16.32-1.63-5.11-4.08-9.58-7.35-13.43-3.27-3.84-7.41-6.88-12.43-9.1-5.02-2.22-10.86-3.34-17.51-3.34-12.95,0-23.14,3.67-30.58,11-7.44,7.33-12.19,17.73-14.25,31.19h84.57Z"/>
      <path class="cls-2" d="m3376.8,2623.94c3.75-3.72,7.71-7.18,11.89-10.37,4.17-3.18,8.59-5.89,13.25-8.11,4.66-2.22,9.65-3.97,14.97-5.23,5.32-1.26,11.13-1.89,17.42-1.89,10.16,0,19.17,1.71,27.04,5.14,7.86,3.43,14.43,8.23,19.69,14.42,5.26,6.19,9.26,13.58,11.98,22.18,2.72,8.6,4.08,18.06,4.08,28.4v117.74h-44.82v-117.74c0-11.3-2.6-20.04-7.8-26.23-5.2-6.19-13.13-9.29-23.77-9.29-7.74,0-15,1.74-21.78,5.23-6.78,3.49-13.19,8.23-19.24,14.24v133.78h-44.82v-184.99h27.4c5.81,0,9.62,2.7,11.43,8.11l3.08,14.6Z"/>
      <path class="cls-2" d="m3599.1,2789.09c-16.21,0-28.64-4.54-37.29-13.61-8.65-9.07-12.97-21.61-12.97-37.59v-103.31h-19.05c-2.42,0-4.48-.78-6.17-2.34-1.7-1.56-2.54-3.9-2.54-7.03v-17.67l29.94-4.87,9.44-50.48c.6-2.4,1.75-4.27,3.45-5.59,1.69-1.32,3.87-1.98,6.53-1.98h23.23v58.24h49.72v31.73h-49.72v100.25c0,5.77,1.42,10.28,4.26,13.52,2.84,3.25,6.74,4.87,11.71,4.87,2.78,0,5.11-.33,6.99-.99,1.88-.66,3.51-1.35,4.9-2.07,1.39-.72,2.63-1.41,3.72-2.07,1.09-.66,2.18-.99,3.27-.99,1.33,0,2.42.33,3.27.99.84.66,1.75,1.65,2.72,2.97l13.43,21.64c-6.53,5.41-14.04,9.5-22.5,12.26-8.47,2.76-17.24,4.15-26.31,4.15Z"/>
      <path class="cls-2" d="m3651.94,2779.16c0,.11-.02.22-.06.32-.04.1-.1.19-.17.26s-.15.13-.25.18c-.1.04-.2.07-.3.07s-.21-.02-.3-.07c-.09-.04-.17-.1-.24-.18-.07-.07-.12-.16-.16-.26-.04-.1-.06-.21-.06-.32s.02-.23.06-.33c.04-.1.1-.19.16-.27.07-.07.15-.13.24-.18.09-.04.19-.07.3-.07s.21.02.3.07c.09.04.18.1.25.18s.13.16.17.27c.04.1.06.21.06.33Zm-.17,1.59v5.46h-1.22v-5.46h1.22Z"/>
      <path class="cls-2" d="m3654.17,2781.49c.21-.25.44-.46.7-.61.26-.16.57-.23.92-.23.28,0,.53.06.76.19.23.12.43.3.59.54.17.24.29.53.38.87s.13.74.13,1.19c0,.41-.05.79-.15,1.13s-.25.65-.44.9c-.19.26-.42.46-.68.6s-.57.22-.9.22c-.28,0-.52-.05-.72-.14-.2-.09-.38-.22-.54-.39v2.23h-1.21v-7.24h.74c.16,0,.26.08.31.24l.1.51Zm.06,3.3c.14.18.29.31.45.38s.34.11.53.11.35-.04.5-.11.27-.19.38-.34c.1-.15.18-.34.24-.58.05-.23.08-.51.08-.82s-.02-.59-.07-.81c-.05-.22-.12-.4-.2-.54-.09-.14-.2-.24-.32-.3-.13-.06-.27-.1-.43-.1-.25,0-.47.06-.64.17-.18.12-.34.28-.5.49v2.45Z"/>
      <path class="cls-2" d="m3661.68,2781.81c-.03.06-.07.1-.1.12-.04.02-.08.04-.14.04s-.12-.02-.19-.05c-.07-.04-.14-.08-.23-.12-.09-.04-.19-.08-.3-.12-.11-.04-.25-.05-.4-.05-.24,0-.43.05-.56.17-.14.11-.21.25-.21.43,0,.12.04.22.11.29.07.08.16.15.28.21.12.06.25.11.4.16.15.05.3.1.45.16.15.06.3.12.45.19.15.07.28.17.4.28.12.11.21.25.28.4s.11.34.11.56c0,.26-.04.5-.13.73-.09.22-.22.41-.39.57-.17.16-.38.29-.63.38-.25.09-.54.14-.87.14-.17,0-.34-.02-.51-.05-.17-.03-.33-.08-.48-.14s-.29-.13-.42-.21c-.13-.08-.24-.17-.34-.27l.28-.5c.04-.06.08-.11.13-.14s.11-.05.19-.05.15.02.21.07.14.1.23.15c.09.05.19.1.31.15.12.05.27.07.46.07.14,0,.27-.02.37-.06.1-.04.19-.09.26-.15.07-.06.12-.13.15-.21.03-.08.05-.16.05-.25,0-.13-.04-.23-.11-.31-.07-.08-.16-.15-.28-.21-.12-.06-.25-.11-.4-.16-.15-.05-.3-.1-.46-.16-.15-.06-.31-.12-.46-.2-.15-.08-.28-.17-.4-.29-.12-.12-.21-.26-.28-.43-.07-.17-.11-.38-.11-.62,0-.22.04-.44.12-.64s.2-.38.36-.53c.16-.15.36-.27.6-.36s.51-.14.82-.14c.35,0,.66.06.95.19s.52.29.71.49l-.28.47Z"/>
      <path class="cls-2" d="m3667.28,2780.75v5.46h-.74c-.16,0-.26-.08-.3-.24l-.08-.44c-.21.23-.43.41-.68.55s-.54.21-.88.21c-.28,0-.52-.05-.73-.15-.21-.1-.39-.24-.53-.43-.14-.18-.25-.4-.33-.66-.07-.25-.11-.53-.11-.84v-3.47h1.22v3.47c0,.33.07.59.21.77s.36.27.64.27c.21,0,.41-.05.59-.15.18-.1.36-.24.52-.42v-3.95h1.21Z"/>
      <path class="cls-2" d="m3668.48,2786.21v-5.46h.74c.16,0,.26.08.31.24l.08.4c.09-.11.18-.2.28-.29.1-.09.2-.17.31-.23.11-.06.23-.12.36-.15s.26-.06.42-.06c.32,0,.58.09.79.28.2.19.36.43.46.74.08-.18.18-.34.29-.47.12-.13.25-.23.39-.32.14-.08.29-.14.45-.18.16-.04.32-.06.48-.06.28,0,.53.05.74.14.22.09.4.23.54.4.15.18.26.39.34.65.08.26.12.55.12.88v3.47h-1.21v-3.47c0-.35-.07-.61-.21-.78-.14-.18-.35-.26-.62-.26-.12,0-.24.02-.35.07-.11.05-.2.11-.28.2s-.14.2-.19.33c-.05.13-.07.28-.07.45v3.47h-1.22v-3.47c0-.37-.07-.63-.21-.8-.13-.17-.33-.25-.6-.25-.18,0-.34.05-.49.14-.15.09-.29.22-.43.38v4h-1.21Z"/>
    </g>
  </g>
</svg>