<?xml version="1.0" encoding="UTF-8"?>
<svg id="Capa_1" data-name="Capa 1" xmlns="http://www.w3.org/2000/svg" xmlns:xlink="http://www.w3.org/1999/xlink" viewBox="0 0 4000 4000">
  <defs>
    <style>
      .cls-1, .cls-2 {
        fill: #fff;
      }

      .cls-3 {
        fill: url(#Degradado_sin_nombre_82);
      }

      .cls-4 {
        fill: #f9f7f7;
      }

      .cls-5 {
        fill: url(#Degradado_sin_nombre_81);
      }

      .cls-2 {
        stroke: #020202;
        stroke-miterlimit: 10;
        stroke-width: .8px;
      }
    </style>
    <linearGradient id="Degradado_sin_nombre_82" data-name="Degradado sin nombre 82" x1="307" y1="2156.05" x2="1579.43" y2="2156.05" gradientUnits="userSpaceOnUse">
      <stop offset="0" stop-color="#0571de"/>
      <stop offset=".11" stop-color="#0973da" stop-opacity=".87"/>
      <stop offset=".55" stop-color="#177ace" stop-opacity=".41"/>
      <stop offset=".86" stop-color="#217fc6" stop-opacity=".11"/>
      <stop offset="1" stop-color="#2581c4" stop-opacity="0"/>
    </linearGradient>
    <linearGradient id="Degradado_sin_nombre_81" data-name="Degradado sin nombre 81" x1="1445.53" y1="1721.49" x2="3553" y2="1721.49" gradientUnits="userSpaceOnUse">
      <stop offset="0" stop-color="#ffef26"/>
      <stop offset=".01" stop-color="#fee921"/>
      <stop offset=".07" stop-color="#fdd70e"/>
      <stop offset=".13" stop-color="#fdcb03"/>
      <stop offset=".19" stop-color="#fdc800"/>
      <stop offset=".4" stop-color="#f18f34"/>
      <stop offset=".63" stop-color="#e95f32"/>
      <stop offset=".84" stop-color="#e3312d"/>
    </linearGradient>
  </defs>
  <circle class="cls-1" cx="2000" cy="2000" r="2000"/>
  <path class="cls-3" d="m1468.12,1482.73c-11.06,22.94-22.7,39.09-34.89,48.41-12.19,9.32-27.68,13.95-46.5,13.95-19.92,0-41.25-7.12-63.95-21.47-22.7-14.35-49.01-30.45-78.88-48.41-29.92-17.91-63.99-34.06-102.17-48.41-38.23-14.35-83.35-21.52-135.38-21.52-80.85,0-144.24,22.26-190.19,66.72-45.95,44.46-68.93,102.53-68.93,174.22,0,47.34,11.88,87.17,35.68,119.42,23.8,32.26,55.36,60.56,94.69,84.96,39.32,24.4,83.9,46.27,133.74,65.59,49.83,19.38,100.49,40.56,152.01,63.49,51.48,22.94,102.13,49.15,151.97,78.52,49.83,29.38,94.41,66.66,133.74,111.85,39.29,45.19,70.85,99.31,94.69,162.41,23.8,63.1,35.72,139.08,35.72,228,0,106.15-14.7,204.05-44.03,293.64-29.37,89.65-72.85,167.1-130.4,232.35-57.6,65.25-128.76,116.15-213.44,152.7-84.73,36.55-182.47,54.85-293.19,54.85-58.69,0-116.01-6.84-171.92-20.39-55.95-13.67-109.66-32.6-161.14-57-51.52-24.4-99.12-53.1-142.87-86.09-43.76-32.99-82.22-68.81-115.43-107.56l94.69-202.18c12.15-24.4,26.54-43.05,43.17-55.93,16.62-12.88,37.68-19.38,63.16-19.38s49.52,9.32,72.22,27.96c22.7,18.64,49.01,38.75,78.92,60.22,29.88,21.52,65.04,41.58,105.47,60.22,40.42,18.64,91.63,27.96,153.65,27.96,48.73,0,90.53-7.51,125.42-22.54,34.89-15.03,63.67-34.74,86.37-59.15,22.7-24.4,39.32-52.71,49.83-85.02,10.51-32.26,15.8-65.59,15.8-99.99,0-51.63-11.92-93.94-35.72-126.94-23.84-32.99-55.4-61.63-94.69-86.04-39.32-24.4-84.18-46.27-134.56-65.64-50.42-19.32-101.9-40.5-154.48-63.44-52.62-22.94-104.1-49.83-154.48-80.67-50.42-30.84-95.27-69.88-134.56-117.22-39.32-47.34-70.89-105.41-94.69-174.27-23.84-68.8-35.72-152.02-35.72-249.52,0-90.33,13.84-176.36,41.52-258.11,27.68-81.74,68.38-153.09,122.09-214.04,53.71-60.95,120.72-109.71,201.02-146.31,80.3-36.55,173.02-54.85,278.21-54.85,117.39,0,224.23,25.14,320.6,75.3,96.37,50.16,176.67,116.15,240.89,197.89l-93.04,191.45Z"/>
  <path class="cls-5" d="m3553,3294h-310.65c-34.87,0-63.24-12.68-85.14-38.04-21.93-25.36-38.36-56.94-49.28-94.64l-161.32-641.58h-894.69l-161.28,641.58c-7.97,33.36-23.41,63.86-46.32,91.39-22.91,27.53-51.29,41.29-85.14,41.29h-313.65L2295.38,148.98h409.25l848.37,3145.02Zm-709.47-1187.55l-262.85-1046.13c-12.97-46.38-26.4-101.49-40.33-165.29-13.96-63.8-27.89-132.68-41.85-206.64-12.94,73.96-26.37,143.19-40.33,207.73-13.96,64.54-27.39,120.69-40.29,168.55l-261.4,1041.79h687.05Z"/>
  <g>
    <g>
      <path class="cls-2" d="m883.5,2187.85c-1.2,1.71-2.46,2.91-3.77,3.6-1.32.69-2.99,1.04-5.03,1.04-2.16,0-4.46-.53-6.91-1.6-2.46-1.06-5.3-2.26-8.53-3.6-3.23-1.33-6.91-2.53-11.04-3.6-4.13-1.06-9.01-1.6-14.64-1.6-8.74,0-15.6,1.65-20.56,4.96-4.97,3.3-7.45,7.62-7.45,12.95,0,3.52,1.29,6.48,3.86,8.87,2.57,2.4,5.99,4.5,10.24,6.31,4.25,1.81,9.07,3.44,14.46,4.88s10.86,3.01,16.43,4.72c5.57,1.71,11.04,3.65,16.43,5.84,5.39,2.19,10.21,4.96,14.46,8.31,4.25,3.36,7.66,7.38,10.24,12.07,2.57,4.69,3.86,10.34,3.86,16.95,0,7.89-1.59,15.16-4.76,21.82-3.17,6.66-7.87,12.42-14.1,17.27-6.23,4.85-13.92,8.63-23.08,11.35-9.16,2.72-19.73,4.08-31.7,4.08-6.35,0-12.54-.51-18.59-1.52-6.05-1.01-11.85-2.42-17.42-4.24-5.57-1.81-10.72-3.94-15.44-6.4-4.73-2.45-8.89-5.12-12.48-7.99l10.24-15.03c1.32-1.81,2.87-3.2,4.67-4.16,1.8-.96,4.07-1.44,6.82-1.44s5.36.69,7.81,2.08c2.45,1.39,5.3,2.88,8.53,4.48s7.03,3.09,11.4,4.48c4.37,1.39,9.91,2.08,16.61,2.08,5.27,0,9.79-.56,13.56-1.68,3.77-1.12,6.88-2.58,9.34-4.4,2.45-1.81,4.25-3.92,5.39-6.31,1.14-2.4,1.71-4.88,1.71-7.43,0-3.84-1.29-6.98-3.86-9.43-2.58-2.45-5.99-4.58-10.24-6.4-4.25-1.81-9.1-3.44-14.55-4.88-5.45-1.44-11.02-3.01-16.7-4.72-5.69-1.7-11.26-3.7-16.7-6-5.45-2.29-10.3-5.2-14.55-8.71-4.25-3.52-7.66-7.83-10.24-12.95-2.58-5.12-3.86-11.3-3.86-18.54,0-6.71,1.5-13.11,4.49-19.18,2.99-6.08,7.39-11.38,13.2-15.91,5.81-4.53,13.05-8.15,21.73-10.87,8.68-2.72,18.71-4.08,30.08-4.08,12.69,0,24.24,1.87,34.66,5.6,10.42,3.73,19.1,8.63,26.04,14.71l-10.06,14.23Z"/>
      <path class="cls-2" d="m973.29,2173.46c7.18-5.97,15.09-10.82,23.71-14.55,8.62-3.73,18.74-5.6,30.35-5.6,10.06,0,18.97,1.52,26.76,4.56,7.78,3.04,14.28,7.3,19.49,12.79,5.21,5.49,9.16,12.05,11.85,19.66,2.69,7.62,4.04,16.01,4.04,25.18v104.4h-44.36v-104.4c0-10.02-2.58-17.77-7.72-23.26-5.15-5.49-12.99-8.23-23.53-8.23-7.66,0-14.85,1.55-21.55,4.64-6.71,3.09-13.05,7.3-19.04,12.63v118.62h-44.36v-237.57h44.36v91.13Z"/>
      <path class="cls-2" d="m1183.59,2108.07c0,3.41-.78,6.61-2.33,9.59-1.56,2.99-3.62,5.6-6.2,7.83-2.58,2.24-5.6,4.02-9.07,5.36-3.47,1.33-7.18,2-11.13,2s-7.45-.66-10.86-2c-3.41-1.33-6.38-3.12-8.89-5.36-2.51-2.24-4.52-4.85-6.02-7.83-1.5-2.98-2.24-6.18-2.24-9.59s.75-6.82,2.24-9.91c1.5-3.09,3.5-5.75,6.02-7.99,2.51-2.24,5.48-4.02,8.89-5.36,3.41-1.33,7.03-2,10.86-2s7.66.67,11.13,2c3.47,1.33,6.49,3.12,9.07,5.36,2.57,2.24,4.64,4.9,6.2,7.99,1.55,3.09,2.33,6.4,2.33,9.91Zm-6.11,47.8v164.03h-44.54v-164.03h44.54Z"/>
      <path class="cls-2" d="m1399.27,2185.45v88.89c0,5.12,1.44,9.11,4.31,11.99,2.87,2.88,6.7,4.32,11.49,4.32,2.75,0,5.06-.29,6.91-.88,1.85-.58,3.47-1.2,4.85-1.84,1.37-.64,2.6-1.25,3.68-1.84,1.08-.58,2.16-.88,3.23-.88,1.32,0,2.39.29,3.23.88.84.59,1.73,1.47,2.69,2.64l13.29,19.18c-6.47,4.8-13.86,8.42-22.18,10.87-8.32,2.45-16.97,3.68-25.95,3.68-16.04,0-28.37-4.02-36.99-12.07-8.62-8.05-12.93-19.16-12.93-33.33v-91.61h-74.89v134.45h-44.36v-134.29l-15.98-2.24c-3.47-.64-6.26-1.73-8.35-3.28-2.1-1.54-3.14-3.76-3.14-6.63v-16.15h27.48v-12.15c0-9.38,1.59-17.8,4.76-25.26,3.17-7.46,7.72-13.8,13.65-19.02,5.93-5.22,13.14-9.22,21.64-11.99,8.5-2.77,18.08-4.16,28.73-4.16,8.5,0,16.4,1.01,23.71,3.04l-.9,19.82c-.12,1.49-.6,2.69-1.44,3.6-.84.91-1.95,1.6-3.32,2.08-1.38.48-2.96.8-4.76.96-1.8.16-3.71.24-5.75.24-5.27,0-9.97.51-14.1,1.52-4.13,1.01-7.63,2.77-10.51,5.28-2.87,2.51-5.06,5.81-6.56,9.91-1.5,4.1-2.24,9.19-2.24,15.27v10.87h78.3l9.52-44.92c.6-2.13,1.73-3.78,3.41-4.96,1.67-1.17,3.83-1.76,6.47-1.76h22.99v51.64h49.21v28.14h-49.21Z"/>
    </g>
    <g>
      <path class="cls-4" d="m1937.64,2339.65h-30.63c-3.44,0-6.24-.83-8.39-2.48-2.16-1.65-3.78-3.71-4.86-6.17l-15.9-41.82h-88.21l-15.9,41.82c-.79,2.18-2.31,4.16-4.57,5.95-2.26,1.8-5.06,2.69-8.39,2.69h-30.93l83.79-204.99h40.35l83.65,204.99Zm-69.95-77.4l-25.92-68.19c-1.28-3.02-2.6-6.61-3.98-10.77-1.38-4.16-2.75-8.65-4.12-13.47-1.28,4.82-2.6,9.33-3.98,13.54-1.38,4.21-2.7,7.87-3.98,10.99l-25.77,67.91h67.74Z"/>
      <path class="cls-4" d="m2046.17,2222.55c-.98,1.51-2.01,2.58-3.09,3.19-1.08.62-2.46.92-4.12.92-1.77,0-3.66-.47-5.67-1.42-2.01-.94-4.34-2.01-7-3.19-2.65-1.18-5.67-2.24-9.06-3.19-3.39-.94-7.39-1.42-12-1.42-7.17,0-12.79,1.47-16.86,4.39-4.07,2.93-6.11,6.76-6.11,11.48,0,3.12,1.05,5.74,3.17,7.87,2.11,2.13,4.91,3.99,8.39,5.6,3.48,1.61,7.44,3.05,11.85,4.32,4.42,1.28,8.91,2.67,13.48,4.18,4.56,1.51,9.06,3.24,13.48,5.17,4.42,1.94,8.37,4.39,11.85,7.37,3.48,2.98,6.28,6.54,8.39,10.7,2.11,4.16,3.17,9.17,3.17,15.03,0,6.99-1.3,13.45-3.9,19.35-2.6,5.91-6.46,11.01-11.56,15.31-5.11,4.3-11.41,7.66-18.92,10.07-7.51,2.41-16.18,3.61-25.99,3.61-5.21,0-10.28-.45-15.24-1.35-4.96-.9-9.72-2.15-14.29-3.76-4.56-1.61-8.79-3.5-12.67-5.67-3.88-2.17-7.29-4.54-10.23-7.09l8.39-13.33c1.08-1.61,2.36-2.84,3.83-3.69,1.47-.85,3.34-1.28,5.6-1.28s4.39.62,6.4,1.84c2.01,1.23,4.34,2.55,7,3.97,2.65,1.42,5.77,2.74,9.35,3.97,3.58,1.23,8.12,1.84,13.62,1.84,4.32,0,8.03-.5,11.12-1.49,3.09-.99,5.65-2.29,7.66-3.9,2.01-1.61,3.48-3.47,4.42-5.6.93-2.13,1.4-4.32,1.4-6.59,0-3.4-1.06-6.19-3.17-8.36-2.11-2.17-4.91-4.06-8.39-5.67-3.49-1.61-7.46-3.05-11.93-4.32-4.47-1.28-9.03-2.67-13.7-4.18-4.66-1.51-9.23-3.28-13.7-5.32-4.47-2.03-8.44-4.61-11.93-7.73-3.49-3.12-6.28-6.95-8.39-11.48-2.11-4.54-3.17-10.02-3.17-16.44,0-5.95,1.23-11.62,3.68-17.01,2.45-5.39,6.06-10.09,10.82-14.1,4.76-4.02,10.7-7.23,17.82-9.64,7.12-2.41,15.34-3.61,24.67-3.61,10.41,0,19.88,1.65,28.42,4.96,8.54,3.31,15.66,7.66,21.35,13.04l-8.25,12.62Z"/>
      <path class="cls-4" d="m2175.62,2222.55c-.98,1.51-2.01,2.58-3.09,3.19-1.08.62-2.46.92-4.12.92-1.77,0-3.66-.47-5.67-1.42-2.01-.94-4.34-2.01-7-3.19-2.65-1.18-5.67-2.24-9.06-3.19-3.39-.94-7.39-1.42-12-1.42-7.17,0-12.79,1.47-16.86,4.39-4.07,2.93-6.11,6.76-6.11,11.48,0,3.12,1.05,5.74,3.17,7.87,2.11,2.13,4.91,3.99,8.39,5.6,3.48,1.61,7.44,3.05,11.85,4.32,4.42,1.28,8.91,2.67,13.48,4.18,4.56,1.51,9.06,3.24,13.48,5.17,4.42,1.94,8.37,4.39,11.85,7.37,3.48,2.98,6.28,6.54,8.39,10.7,2.11,4.16,3.17,9.17,3.17,15.03,0,6.99-1.3,13.45-3.9,19.35-2.6,5.91-6.46,11.01-11.56,15.31-5.11,4.3-11.41,7.66-18.92,10.07-7.51,2.41-16.18,3.61-25.99,3.61-5.21,0-10.28-.45-15.24-1.35-4.96-.9-9.72-2.15-14.29-3.76-4.56-1.61-8.79-3.5-12.66-5.67-3.88-2.17-7.29-4.54-10.24-7.09l8.39-13.33c1.08-1.61,2.36-2.84,3.83-3.69,1.47-.85,3.34-1.28,5.6-1.28s4.39.62,6.4,1.84c2.01,1.23,4.34,2.55,7,3.97,2.65,1.42,5.77,2.74,9.35,3.97,3.58,1.23,8.12,1.84,13.62,1.84,4.32,0,8.03-.5,11.12-1.49,3.09-.99,5.65-2.29,7.66-3.9,2.01-1.61,3.48-3.47,4.42-5.6.93-2.13,1.4-4.32,1.4-6.59,0-3.4-1.06-6.19-3.17-8.36-2.11-2.17-4.91-4.06-8.39-5.67-3.49-1.61-7.46-3.05-11.93-4.32-4.47-1.28-9.03-2.67-13.7-4.18-4.66-1.51-9.23-3.28-13.7-5.32-4.47-2.03-8.44-4.61-11.93-7.73-3.49-3.12-6.28-6.95-8.39-11.48-2.11-4.54-3.17-10.02-3.17-16.44,0-5.95,1.23-11.62,3.68-17.01,2.45-5.39,6.06-10.09,10.82-14.1,4.76-4.02,10.7-7.23,17.82-9.64,7.12-2.41,15.34-3.61,24.67-3.61,10.41,0,19.88,1.65,28.42,4.96,8.54,3.31,15.66,7.66,21.35,13.04l-8.25,12.62Z"/>
      <path class="cls-4" d="m2255.58,2151.81c0,3.03-.64,5.86-1.91,8.51-1.28,2.65-2.97,4.96-5.08,6.95-2.11,1.98-4.59,3.57-7.44,4.75-2.85,1.18-5.89,1.77-9.13,1.77s-6.11-.59-8.91-1.77c-2.8-1.18-5.23-2.76-7.29-4.75-2.06-1.98-3.71-4.3-4.93-6.95-1.23-2.65-1.84-5.48-1.84-8.51s.61-6.05,1.84-8.79c1.23-2.74,2.87-5.1,4.93-7.09,2.06-1.98,4.49-3.57,7.29-4.75,2.8-1.18,5.77-1.77,8.91-1.77s6.28.59,9.13,1.77c2.85,1.18,5.33,2.76,7.44,4.75,2.11,1.98,3.8,4.35,5.08,7.09,1.27,2.74,1.91,5.67,1.91,8.79Zm-5.01,42.39v145.45h-36.52v-145.45h36.52Z"/>
      <path class="cls-4" d="m2420.22,2199.16v13.04c0,4.16-2.6,6.71-7.81,7.66l-13.55,2.41c2.06,5.01,3.09,10.49,3.09,16.44,0,7.18-1.5,13.68-4.49,19.49-3,5.81-7.14,10.75-12.45,14.81-5.3,4.06-11.56,7.21-18.78,9.43-7.22,2.22-15,3.33-23.34,3.33-2.94,0-5.79-.14-8.54-.43-2.75-.28-5.45-.66-8.1-1.13-4.71,2.74-7.07,5.81-7.07,9.21,0,2.93,1.4,5.08,4.2,6.45,2.8,1.37,6.5,2.34,11.12,2.91,4.61.57,9.87.92,15.76,1.06,5.89.14,11.93.45,18.11.92,6.18.47,12.22,1.3,18.11,2.48,5.89,1.18,11.14,3.05,15.76,5.6,4.61,2.55,8.32,6.03,11.12,10.42,2.8,4.4,4.2,10.04,4.2,16.94,0,6.43-1.65,12.66-4.93,18.71-3.29,6.05-8.05,11.43-14.29,16.16-6.24,4.73-13.89,8.53-22.97,11.41-9.08,2.88-19.42,4.32-31,4.32s-21.31-1.06-29.75-3.19c-8.44-2.13-15.46-4.96-21.06-8.51-5.6-3.54-9.77-7.63-12.52-12.26-2.75-4.63-4.12-9.45-4.12-14.46,0-6.81,2.13-12.5,6.4-17.08,4.27-4.58,10.14-8.24,17.6-10.99-4.03-1.98-7.21-4.63-9.57-7.94-2.36-3.31-3.53-7.66-3.53-13.04,0-2.17.42-4.42,1.25-6.73.83-2.31,2.06-4.61,3.68-6.88s3.66-4.42,6.11-6.45c2.45-2.03,5.35-3.85,8.69-5.46-7.66-3.97-13.67-9.26-18.04-15.88-4.37-6.61-6.55-14.36-6.55-23.25,0-7.18,1.5-13.68,4.49-19.49,2.99-5.81,7.17-10.77,12.52-14.89,5.35-4.11,11.68-7.25,19-9.43,7.31-2.17,15.29-3.26,23.93-3.26,6.48,0,12.57.64,18.26,1.91,5.69,1.28,10.9,3.14,15.61,5.6h43.44Zm-36.23,147.01c0-2.84-.88-5.15-2.65-6.95s-4.17-3.19-7.21-4.18c-3.04-.99-6.6-1.72-10.68-2.2-4.07-.47-8.39-.83-12.96-1.06-4.56-.23-9.28-.45-14.14-.64-4.86-.19-9.6-.57-14.21-1.13-4.03,2.18-7.29,4.73-9.79,7.66-2.5,2.93-3.75,6.33-3.75,10.21,0,2.55.66,4.94,1.99,7.16,1.33,2.22,3.44,4.13,6.33,5.74,2.89,1.61,6.65,2.86,11.27,3.76,4.61.9,10.26,1.35,16.94,1.35s12.61-.5,17.52-1.49c4.91-.99,8.96-2.36,12.15-4.11,3.19-1.75,5.52-3.83,6.99-6.24s2.21-5.03,2.21-7.87Zm-41.09-82.79c4.51,0,8.44-.59,11.78-1.77,3.34-1.18,6.11-2.81,8.32-4.89,2.21-2.08,3.88-4.58,5.01-7.51,1.13-2.93,1.69-6.14,1.69-9.64,0-7.18-2.23-12.88-6.7-17.08-4.47-4.2-11.17-6.31-20.1-6.31s-15.64,2.1-20.1,6.31c-4.47,4.21-6.7,9.9-6.7,17.08,0,3.4.56,6.57,1.69,9.5,1.13,2.93,2.8,5.46,5.01,7.58,2.21,2.13,5.01,3.78,8.39,4.96,3.39,1.18,7.29,1.77,11.71,1.77Z"/>
      <path class="cls-4" d="m2477.21,2212.06c3.04-2.93,6.26-5.65,9.65-8.15,3.39-2.5,6.97-4.63,10.75-6.38,3.78-1.75,7.83-3.12,12.15-4.11,4.32-.99,9.03-1.49,14.14-1.49,8.25,0,15.56,1.35,21.94,4.04,6.38,2.69,11.71,6.47,15.98,11.34,4.27,4.87,7.51,10.68,9.72,17.44,2.21,6.76,3.31,14.2,3.31,22.33v92.57h-36.37v-92.57c0-8.88-2.11-15.76-6.33-20.63-4.22-4.87-10.65-7.3-19.29-7.3-6.28,0-12.17,1.37-17.67,4.11-5.5,2.74-10.7,6.47-15.61,11.2v105.19h-36.37v-145.45h22.24c4.71,0,7.81,2.13,9.28,6.38l2.5,11.48Z"/>
      <path class="cls-4" d="m2609.31,2339.65v-145.45h22.24c4.71,0,7.81,2.13,9.28,6.38l2.36,10.77c2.65-2.84,5.42-5.43,8.32-7.8,2.89-2.36,5.99-4.39,9.28-6.1,3.29-1.7,6.82-3.05,10.6-4.04,3.78-.99,7.93-1.49,12.45-1.49,9.52,0,17.35,2.48,23.49,7.44,6.14,4.96,10.73,11.55,13.77,19.78,2.36-4.82,5.3-8.95,8.84-12.41,3.53-3.45,7.41-6.26,11.63-8.43,4.22-2.17,8.71-3.78,13.47-4.82,4.76-1.04,9.55-1.56,14.36-1.56,8.34,0,15.76,1.23,22.24,3.69,6.48,2.46,11.93,6.05,16.35,10.77,4.42,4.73,7.78,10.49,10.09,17.3,2.3,6.8,3.46,14.6,3.46,23.39v92.57h-36.37v-92.57c0-9.26-2.11-16.23-6.33-20.91-4.22-4.68-10.41-7.02-18.56-7.02-3.73,0-7.19.62-10.38,1.84-3.19,1.23-5.99,3-8.4,5.32-2.41,2.32-4.3,5.22-5.67,8.72-1.38,3.5-2.06,7.51-2.06,12.05v92.57h-36.52v-92.57c0-9.73-2.04-16.82-6.11-21.26-4.07-4.44-10.04-6.66-17.89-6.66-5.3,0-10.24,1.25-14.8,3.76-4.56,2.51-8.81,5.93-12.74,10.28v106.46h-36.37Z"/>
      <path class="cls-4" d="m2883.95,2271.32c.59,7.47,1.96,13.92,4.12,19.35,2.16,5.44,5.01,9.92,8.54,13.47,3.53,3.54,7.73,6.19,12.59,7.94,4.86,1.75,10.24,2.62,16.13,2.62s10.97-.66,15.24-1.98c4.27-1.32,8-2.79,11.19-4.4,3.19-1.61,5.99-3.07,8.39-4.39,2.4-1.32,4.74-1.98,7-1.98,3.04,0,5.3,1.09,6.77,3.26l10.46,12.76c-4.03,4.54-8.54,8.34-13.55,11.41-5.01,3.07-10.24,5.53-15.68,7.37s-11,3.14-16.64,3.9c-5.65.76-11.12,1.13-16.42,1.13-10.51,0-20.27-1.68-29.31-5.03-9.03-3.35-16.89-8.32-23.56-14.89-6.68-6.57-11.93-14.69-15.76-24.38-3.83-9.69-5.74-20.91-5.74-33.67,0-9.92,1.67-19.26,5.01-28,3.34-8.74,8.12-16.35,14.36-22.82,6.23-6.47,13.84-11.6,22.83-15.38,8.98-3.78,19.12-5.67,30.41-5.67,9.52,0,18.31,1.47,26.36,4.39,8.05,2.93,14.97,7.21,20.76,12.83,5.79,5.62,10.33,12.52,13.62,20.7,3.29,8.18,4.93,17.51,4.93,28,0,5.29-.59,8.86-1.77,10.7-1.18,1.84-3.44,2.76-6.77,2.76h-93.51Zm69.36-21.12c0-4.54-.66-8.81-1.99-12.83-1.33-4.02-3.31-7.54-5.96-10.56-2.65-3.02-6.01-5.41-10.09-7.16-4.07-1.75-8.81-2.62-14.21-2.62-10.51,0-18.78,2.88-24.81,8.65-6.04,5.77-9.89,13.94-11.56,24.53h68.63Z"/>
      <path class="cls-4" d="m3047.27,2212.06c3.04-2.93,6.26-5.65,9.65-8.15,3.39-2.5,6.97-4.63,10.75-6.38,3.78-1.75,7.83-3.12,12.15-4.11,4.32-.99,9.03-1.49,14.14-1.49,8.25,0,15.56,1.35,21.94,4.04,6.38,2.69,11.71,6.47,15.98,11.34,4.27,4.87,7.51,10.68,9.72,17.44,2.21,6.76,3.31,14.2,3.31,22.33v92.57h-36.37v-92.57c0-8.88-2.11-15.76-6.33-20.63-4.22-4.87-10.65-7.3-19.29-7.3-6.28,0-12.17,1.37-17.67,4.11-5.5,2.74-10.7,6.47-15.61,11.2v105.19h-36.37v-145.45h22.24c4.71,0,7.81,2.13,9.28,6.38l2.5,11.48Z"/>
      <path class="cls-4" d="m3227.67,2341.92c-13.16,0-23.25-3.57-30.26-10.7-7.02-7.13-10.53-16.99-10.53-29.56v-81.23h-15.46c-1.97,0-3.63-.61-5.01-1.84-1.38-1.23-2.06-3.07-2.06-5.53v-13.89l24.3-3.83,7.66-39.69c.49-1.89,1.42-3.35,2.8-4.4,1.37-1.04,3.14-1.56,5.3-1.56h18.85v45.79h40.35v24.95h-40.35v78.82c0,4.54,1.15,8.08,3.46,10.63,2.31,2.55,5.47,3.83,9.5,3.83,2.26,0,4.15-.26,5.67-.78,1.52-.52,2.85-1.06,3.98-1.63,1.13-.57,2.13-1.11,3.02-1.63.88-.52,1.77-.78,2.65-.78,1.08,0,1.96.26,2.65.78.68.52,1.42,1.3,2.21,2.34l10.9,17.01c-5.3,4.25-11.39,7.47-18.26,9.64-6.87,2.17-13.99,3.26-21.35,3.26Z"/>
      <path class="cls-4" d="m3270.55,2334.11c0,.09-.02.17-.05.25-.03.08-.08.15-.14.21s-.13.11-.2.14c-.08.03-.16.05-.25.05s-.17-.02-.24-.05c-.08-.04-.14-.08-.2-.14-.06-.06-.1-.13-.13-.21-.03-.08-.05-.16-.05-.25s.02-.18.05-.26c.03-.08.08-.15.13-.21.06-.06.12-.11.2-.14.08-.04.16-.05.24-.05s.17.02.25.05c.08.03.14.08.2.14s.1.13.14.21c.03.08.05.17.05.26Zm-.14,1.25v4.29h-.99v-4.29h.99Z"/>
      <path class="cls-4" d="m3272.36,2335.94c.17-.2.36-.36.57-.48.21-.12.46-.18.75-.18.22,0,.43.05.61.15.19.1.35.24.48.42.13.19.24.41.31.69s.11.58.11.94c0,.32-.04.62-.12.89s-.2.51-.35.71c-.15.2-.34.36-.55.47s-.46.17-.73.17c-.23,0-.42-.04-.59-.11-.16-.07-.31-.18-.44-.31v1.76h-.99v-5.69h.6c.13,0,.21.06.25.19l.08.4Zm.05,2.59c.11.14.23.24.37.3s.27.09.43.09.28-.03.4-.09.22-.15.31-.27c.08-.12.15-.27.19-.45.04-.18.07-.4.07-.65s-.02-.46-.06-.64c-.04-.17-.09-.32-.16-.42-.07-.11-.16-.19-.26-.24-.1-.05-.22-.08-.35-.08-.2,0-.38.05-.52.14-.14.09-.28.22-.41.38v1.92Z"/>
      <path class="cls-4" d="m3278.46,2336.19s-.06.08-.08.09c-.03.02-.07.03-.11.03s-.1-.01-.15-.04c-.05-.03-.12-.06-.19-.09-.07-.04-.15-.07-.24-.09-.09-.03-.2-.04-.33-.04-.19,0-.35.04-.46.13-.11.09-.17.2-.17.34,0,.09.03.17.09.23.06.06.13.12.23.17.1.05.2.09.32.13.12.04.24.08.36.12.12.05.25.1.37.15.12.06.23.13.32.22.09.09.17.19.23.32s.09.27.09.44c0,.21-.03.4-.1.57-.07.17-.18.32-.31.45-.14.13-.31.23-.51.3-.2.07-.44.11-.71.11-.14,0-.28-.01-.41-.04-.13-.03-.26-.06-.39-.11s-.24-.1-.34-.17c-.11-.06-.2-.13-.28-.21l.23-.39s.06-.08.1-.11.09-.04.15-.04.12.02.17.05.12.08.19.12c.07.04.16.08.25.12.1.04.22.05.37.05.12,0,.22-.01.3-.04.08-.03.15-.07.21-.11.05-.05.09-.1.12-.17.03-.06.04-.13.04-.19,0-.1-.03-.18-.09-.25-.06-.06-.13-.12-.23-.17-.1-.05-.2-.09-.32-.13-.12-.04-.25-.08-.37-.12-.13-.04-.25-.1-.37-.16-.12-.06-.23-.14-.32-.23-.1-.09-.17-.21-.23-.34-.06-.13-.09-.3-.09-.49,0-.18.03-.34.1-.5s.16-.3.29-.42c.13-.12.29-.21.48-.28s.42-.11.67-.11c.28,0,.54.05.77.15s.42.23.58.38l-.22.37Z"/>
      <path class="cls-4" d="m3282.99,2335.36v4.29h-.6c-.13,0-.21-.06-.25-.19l-.07-.34c-.17.18-.35.32-.55.43s-.44.17-.71.17c-.22,0-.42-.04-.59-.12-.17-.08-.32-.19-.43-.34-.12-.14-.21-.32-.27-.52-.06-.2-.09-.42-.09-.66v-2.73h.99v2.73c0,.26.06.47.17.61s.29.22.52.22c.17,0,.33-.04.48-.12.15-.08.29-.19.42-.33v-3.1h.99Z"/>
      <path class="cls-4" d="m3283.97,2339.65v-4.29h.6c.13,0,.21.06.25.19l.06.32c.07-.08.15-.16.23-.23.08-.07.16-.13.25-.18.09-.05.19-.09.29-.12s.21-.04.34-.04c.26,0,.47.07.64.22.16.15.29.34.37.58.06-.14.14-.26.24-.37.1-.1.2-.18.32-.25.11-.06.24-.11.37-.14.13-.03.26-.05.39-.05.23,0,.43.04.6.11.18.07.32.18.44.32.12.14.21.31.27.51.06.2.09.43.09.69v2.73h-.99v-2.73c0-.27-.06-.48-.17-.62-.12-.14-.28-.21-.5-.21-.1,0-.19.02-.28.05-.09.04-.16.09-.23.16s-.12.15-.15.26c-.04.1-.06.22-.06.36v2.73h-.99v-2.73c0-.29-.06-.5-.17-.63-.11-.13-.27-.2-.48-.2-.14,0-.28.04-.4.11-.12.07-.24.17-.35.3v3.14h-.99Z"/>
    </g>
  </g>
</svg>