<?xml version="1.0" encoding="UTF-8"?><svg xmlns="http://www.w3.org/2000/svg" xmlns:xlink="http://www.w3.org/1999/xlink" viewBox="0 0 4000 4000"><defs><style>.cls-1{fill:url(#Degradado_sin_nombre_81);}.cls-2{fill:url(#Degradado_sin_nombre_82);}.cls-3{fill:#fff;}.cls-4{fill:#f07e24;}.cls-5{fill:#2581c4;}</style><linearGradient id="Degradado_sin_nombre_82" x1="198.07" y1="1818.34" x2="1849.84" y2="1818.34" gradientUnits="userSpaceOnUse"><stop offset="0" stop-color="#0571de"/><stop offset=".11" stop-color="#0973da" stop-opacity=".87"/><stop offset=".55" stop-color="#177ace" stop-opacity=".41"/><stop offset=".86" stop-color="#217fc6" stop-opacity=".11"/><stop offset="1" stop-color="#2581c4" stop-opacity="0"/></linearGradient><linearGradient id="Degradado_sin_nombre_81" x1="1645.67" y1="1717.9" x2="3573.2" y2="1717.9" gradientUnits="userSpaceOnUse"><stop offset="0" stop-color="#ffef26"/><stop offset=".01" stop-color="#fee921"/><stop offset=".07" stop-color="#fdd70e"/><stop offset=".13" stop-color="#fdcb03"/><stop offset=".19" stop-color="#fdc800"/><stop offset=".4" stop-color="#f18f34"/><stop offset=".63" stop-color="#e95f32"/><stop offset=".84" stop-color="#e3312d"/></linearGradient></defs><g id="Capa_2"><circle class="cls-3" cx="2000" cy="2000" r="2000"/></g><g id="Capa_1"><path class="cls-2" d="M1705.35,1030.2c-14.35,26.85-29.47,45.76-45.3,56.67-15.83,10.91-35.93,16.33-60.36,16.33-25.86,0-53.54-8.33-83.01-25.13-29.47-16.8-63.62-35.64-102.4-56.67-38.83-20.96-83.06-39.87-132.63-56.67-49.62-16.8-108.2-25.19-175.74-25.19-104.95,0-187.25,26.05-246.89,78.09-59.65,52.04-89.47,120.02-89.47,203.93,0,55.41,15.42,102.03,46.32,139.79,30.89,37.76,71.86,70.89,122.91,99.45,51.05,28.57,108.92,54.16,173.61,76.77,64.69,22.68,130.45,47.48,197.32,74.32,66.83,26.85,132.58,57.53,197.27,91.91,64.69,34.38,122.56,78.03,173.61,130.93,51,52.9,91.97,116.25,122.91,190.11,30.89,73.86,46.37,162.8,46.37,266.88,0,124.25-19.09,238.84-57.16,343.72-38.12,104.94-94.56,195.6-169.28,271.97-74.77,76.37-167.14,135.95-277.08,178.74-109.99,42.78-236.87,64.21-380.6,64.21-76.19,0-150.6-8-223.18-23.87-72.63-16-142.36-38.15-209.18-66.72-66.88-28.57-128.66-62.16-185.46-100.77-56.8-38.62-106.73-80.54-149.84-125.9l122.91-236.66c15.78-28.57,34.46-50.39,56.04-65.46,21.58-15.08,48.91-22.68,81.99-22.68s64.28,10.91,93.75,32.73c29.47,21.82,63.62,45.36,102.45,70.49,38.78,25.19,84.44,48.67,136.91,70.49,52.47,21.82,118.94,32.73,199.46,32.73,63.26,0,117.52-8.79,162.82-26.38,45.3-17.59,82.65-40.67,112.12-69.23,29.47-28.57,51.05-61.69,64.69-99.52,13.64-37.76,20.51-76.77,20.51-117.04,0-60.44-15.47-109.97-46.37-148.58-30.94-38.62-71.92-72.14-122.91-100.71-51.05-28.57-109.27-54.16-174.67-76.84-65.45-22.61-132.28-47.41-200.53-74.26-68.3-26.85-135.13-58.32-200.53-94.43-65.45-36.1-123.68-81.8-174.67-137.21-51.05-55.41-92.02-123.39-122.91-203.99-30.94-80.54-46.37-177.94-46.37-292.07,0-105.73,17.97-206.44,53.9-302.12,35.93-95.68,88.76-179.2,158.49-250.55,69.73-71.35,156.71-128.41,260.94-171.26,104.23-42.78,224.6-64.21,361.16-64.21,152.38,0,291.07,29.43,416.17,88.14,125.1,58.72,229.34,135.95,312.7,231.63l-120.78,224.1Z"/><path class="cls-1" d="M3573.2,3274.11h-284.13c-31.89,0-57.84-12.55-77.87-37.64-20.06-25.1-35.08-56.35-45.08-93.66l-147.54-634.93h-818.3l-147.51,634.93c-7.29,33.01-21.41,63.19-42.37,90.44-20.96,27.24-46.91,40.87-77.87,40.87h-286.87L2422.95,161.7h374.31l775.93,3112.41ZM2924.3,2098.87l-240.41-1035.28c-11.87-45.9-24.15-100.44-36.89-163.58-12.77-63.14-25.5-131.3-38.27-204.5-11.83,73.2-24.12,141.7-36.89,205.58-12.77,63.87-25.05,119.43-36.85,166.8l-239.08,1030.99h628.39Z"/><path class="cls-5" d="M2250.75,3193.45c-1.87,2.61-3.84,4.45-5.89,5.51-2.06,1.06-4.68,1.59-7.85,1.59-3.37,0-6.97-.81-10.8-2.45-3.84-1.63-8.28-3.47-13.33-5.51-5.05-2.04-10.8-3.87-17.25-5.51-6.45-1.63-14.08-2.45-22.86-2.45-13.65,0-24.36,2.53-32.12,7.59-7.76,5.06-11.64,11.67-11.64,19.83,0,5.39,2.01,9.92,6.03,13.59,4.02,3.67,9.35,6.9,15.99,9.67,6.64,2.78,14.17,5.26,22.58,7.47,8.42,2.2,16.97,4.61,25.67,7.22,8.7,2.61,17.25,5.59,25.67,8.94,8.42,3.35,15.94,7.59,22.58,12.73,6.64,5.14,11.97,11.31,15.99,18.49,4.02,7.19,6.03,15.84,6.03,25.96,0,12.08-2.48,23.22-7.43,33.42-4.96,10.2-12.3,19.02-22.02,26.44-9.73,7.43-21.74,13.22-36.05,17.38-14.31,4.16-30.82,6.24-49.52,6.24-9.92,0-19.59-.78-29.04-2.33-9.45-1.55-18.52-3.71-27.21-6.49-8.7-2.77-16.74-6.04-24.13-9.79-7.39-3.75-13.89-7.84-19.5-12.24l15.99-23.02c2.06-2.77,4.49-4.9,7.29-6.37,2.81-1.47,6.36-2.2,10.66-2.2s8.37,1.06,12.2,3.18c3.83,2.12,8.28,4.41,13.33,6.86,5.05,2.45,10.99,4.74,17.81,6.86,6.82,2.12,15.47,3.18,25.95,3.18,8.23,0,15.29-.86,21.18-2.57,5.89-1.71,10.75-3.96,14.59-6.73,3.83-2.77,6.64-6,8.42-9.67,1.78-3.67,2.66-7.47,2.66-11.39,0-5.88-2.01-10.69-6.03-14.45-4.02-3.75-9.35-7.02-15.99-9.79-6.64-2.77-14.22-5.26-22.72-7.47-8.51-2.2-17.21-4.61-26.09-7.22-8.89-2.61-17.58-5.67-26.09-9.18-8.51-3.51-16.09-7.96-22.72-13.34-6.64-5.39-11.97-12-15.99-19.83-4.02-7.83-6.03-17.3-6.03-28.4,0-10.28,2.34-20.08,7.01-29.38,4.67-9.3,11.55-17.42,20.62-24.36,9.07-6.94,20.38-12.49,33.95-16.65,13.56-4.16,29.22-6.24,46.99-6.24,19.82,0,37.87,2.86,54.14,8.57,16.27,5.72,29.83,13.22,40.68,22.53l-15.71,21.79Z"/><path class="cls-5" d="M2391.02,3171.41c11.22-9.14,23.57-16.57,37.03-22.28,13.47-5.71,29.27-8.57,47.41-8.57,15.71,0,29.64,2.33,41.8,6.98,12.16,4.65,22.3,11.18,30.44,19.59,8.14,8.41,14.31,18.45,18.52,30.12,4.21,11.67,6.31,24.53,6.31,38.57v159.89h-69.29v-159.89c0-15.34-4.02-27.22-12.06-35.63-8.04-8.41-20.3-12.61-36.75-12.61-11.97,0-23.19,2.37-33.67,7.1-10.48,4.74-20.39,11.18-29.74,19.34v181.68h-69.29v-363.86h69.29v139.57Z"/><path class="cls-5" d="M2719.53,3071.27c0,5.23-1.22,10.12-3.65,14.69-2.43,4.57-5.66,8.57-9.68,12-4.02,3.43-8.74,6.16-14.17,8.2-5.43,2.04-11.22,3.06-17.39,3.06s-11.64-1.02-16.97-3.06c-5.33-2.04-9.96-4.77-13.89-8.2-3.93-3.43-7.06-7.43-9.4-12-2.34-4.57-3.51-9.46-3.51-14.69s1.17-10.45,3.51-15.18c2.34-4.73,5.47-8.81,9.4-12.24,3.93-3.43,8.56-6.16,13.89-8.2,5.33-2.04,10.98-3.06,16.97-3.06s11.97,1.02,17.39,3.06c5.42,2.04,10.14,4.77,14.17,8.2,4.02,3.43,7.25,7.51,9.68,12.24,2.43,4.74,3.65,9.79,3.65,15.18ZM2709.99,3144.48v251.22h-69.57v-251.22h69.57Z"/><path class="cls-5" d="M3056.46,3189.78v136.14c0,7.84,2.24,13.96,6.73,18.36,4.49,4.41,10.47,6.61,17.95,6.61,4.3,0,7.9-.45,10.8-1.35,2.9-.89,5.42-1.84,7.57-2.82,2.15-.98,4.07-1.92,5.75-2.82,1.68-.89,3.37-1.35,5.05-1.35,2.06,0,3.74.45,5.05,1.35,1.31.9,2.71,2.25,4.21,4.04l20.76,29.38c-10.1,7.35-21.65,12.9-34.65,16.65-13,3.75-26.51,5.63-40.54,5.63-25.06,0-44.33-6.16-57.79-18.49-13.47-12.32-20.2-29.34-20.2-51.05v-140.3h-116.99v205.92h-69.29v-205.68l-24.97-3.43c-5.43-.98-9.77-2.65-13.05-5.02-3.27-2.36-4.91-5.75-4.91-10.16v-24.73h42.92v-18.61c0-14.36,2.48-27.26,7.43-38.69,4.95-11.42,12.06-21.14,21.32-29.14,9.26-8,20.52-14.12,33.81-18.36,13.28-4.24,28.24-6.37,44.89-6.37,13.28,0,25.62,1.55,37.03,4.65l-1.4,30.36c-.19,2.29-.94,4.12-2.24,5.51-1.31,1.39-3.04,2.45-5.19,3.18-2.15.73-4.63,1.22-7.43,1.47-2.81.24-5.8.37-8.98.37-8.23,0-15.57.78-22.02,2.33-6.45,1.55-11.92,4.25-16.41,8.08-4.49,3.84-7.9,8.9-10.24,15.18-2.34,6.29-3.51,14.08-3.51,23.38v16.65h122.32l14.87-68.8c.93-3.26,2.71-5.79,5.33-7.59,2.62-1.79,5.98-2.69,10.1-2.69h35.91v79.09h76.87v43.1h-76.87Z"/><path class="cls-4" d="M1286.44,3722.54h-41.18c-4.62,0-8.38-1.41-11.29-4.24-2.91-2.82-5.08-6.33-6.53-10.53l-21.38-71.41h-118.6l-21.38,71.41c-1.06,3.71-3.1,7.1-6.14,10.17-3.04,3.07-6.8,4.6-11.29,4.6h-41.58l112.66-350.01h54.25l112.46,350.01ZM1192.4,3590.38l-34.85-116.43c-1.72-5.16-3.5-11.29-5.35-18.4-1.85-7.1-3.7-14.76-5.54-22.99-1.72,8.23-3.5,15.94-5.35,23.12-1.85,7.18-3.63,13.43-5.35,18.76l-34.65,115.94h91.08Z"/><path class="cls-4" d="M1432.36,3522.61c-1.32,2.58-2.71,4.4-4.16,5.45-1.46,1.05-3.3,1.57-5.54,1.57-2.38,0-4.92-.81-7.62-2.42-2.71-1.61-5.84-3.43-9.41-5.45-3.56-2.02-7.62-3.83-12.18-5.45-4.55-1.61-9.93-2.42-16.14-2.42-9.64,0-17.19,2.5-22.67,7.5-5.48,5-8.22,11.54-8.22,19.61,0,5.33,1.42,9.8,4.26,13.43,2.84,3.63,6.6,6.82,11.29,9.56,4.68,2.75,10,5.2,15.94,7.38,5.94,2.18,11.98,4.56,18.12,7.14,6.14,2.58,12.18,5.53,18.12,8.83,5.94,3.31,11.25,7.5,15.94,12.59,4.68,5.08,8.45,11.18,11.29,18.27,2.84,7.1,4.26,15.65,4.26,25.66,0,11.94-1.75,22.96-5.25,33.04-3.5,10.09-8.68,18.8-15.54,26.14-6.86,7.35-15.34,13.07-25.44,17.19-10.1,4.12-21.75,6.17-34.95,6.17-7,0-13.83-.77-20.49-2.3-6.67-1.54-13.07-3.67-19.21-6.41-6.14-2.74-11.81-5.97-17.03-9.68-5.22-3.71-9.8-7.75-13.76-12.1l11.29-22.75c1.45-2.74,3.17-4.84,5.15-6.29,1.98-1.45,4.49-2.18,7.52-2.18s5.9,1.05,8.61,3.15c2.7,2.1,5.84,4.36,9.41,6.78,3.56,2.42,7.75,4.68,12.57,6.78,4.82,2.1,10.92,3.15,18.31,3.15,5.81,0,10.79-.85,14.95-2.54,4.16-1.7,7.59-3.91,10.3-6.66,2.7-2.74,4.68-5.93,5.94-9.56,1.25-3.63,1.88-7.38,1.88-11.26,0-5.81-1.42-10.57-4.26-14.28-2.84-3.71-6.6-6.94-11.29-9.68-4.69-2.74-10.03-5.2-16.04-7.38-6.01-2.18-12.15-4.56-18.41-7.14-6.27-2.58-12.41-5.6-18.41-9.08-6.01-3.47-11.35-7.87-16.04-13.19-4.69-5.32-8.45-11.86-11.29-19.61-2.84-7.75-4.26-17.1-4.26-28.08,0-10.17,1.65-19.85,4.95-29.05,3.3-9.2,8.15-17.22,14.55-24.08,6.4-6.86,14.39-12.35,23.96-16.46,9.57-4.12,20.62-6.17,33.16-6.17,13.99,0,26.73,2.83,38.21,8.47,11.48,5.65,21.05,13.07,28.71,22.27l-11.09,21.54Z"/><path class="cls-4" d="M1606.4,3522.61c-1.32,2.58-2.71,4.4-4.16,5.45-1.46,1.05-3.3,1.57-5.54,1.57-2.38,0-4.92-.81-7.62-2.42-2.71-1.61-5.84-3.43-9.41-5.45-3.56-2.02-7.62-3.83-12.18-5.45-4.55-1.61-9.93-2.42-16.14-2.42-9.64,0-17.19,2.5-22.67,7.5-5.48,5-8.22,11.54-8.22,19.61,0,5.33,1.42,9.8,4.26,13.43,2.84,3.63,6.6,6.82,11.29,9.56,4.68,2.75,10,5.2,15.94,7.38,5.94,2.18,11.98,4.56,18.12,7.14,6.14,2.58,12.18,5.53,18.12,8.83,5.94,3.31,11.25,7.5,15.94,12.59,4.68,5.08,8.45,11.18,11.29,18.27,2.84,7.1,4.26,15.65,4.26,25.66,0,11.94-1.75,22.96-5.25,33.04-3.5,10.09-8.68,18.8-15.54,26.14-6.86,7.35-15.34,13.07-25.44,17.19-10.1,4.12-21.75,6.17-34.95,6.17-7,0-13.83-.77-20.49-2.3-6.67-1.54-13.07-3.67-19.21-6.41-6.14-2.74-11.81-5.97-17.03-9.68-5.22-3.71-9.8-7.75-13.76-12.1l11.29-22.75c1.45-2.74,3.17-4.84,5.15-6.29,1.98-1.45,4.49-2.18,7.52-2.18s5.9,1.05,8.61,3.15c2.7,2.1,5.84,4.36,9.41,6.78,3.56,2.42,7.75,4.68,12.57,6.78,4.82,2.1,10.92,3.15,18.31,3.15,5.81,0,10.79-.85,14.95-2.54,4.16-1.7,7.59-3.91,10.3-6.66,2.7-2.74,4.68-5.93,5.94-9.56,1.25-3.63,1.88-7.38,1.88-11.26,0-5.81-1.42-10.57-4.26-14.28-2.84-3.71-6.6-6.94-11.29-9.68-4.69-2.74-10.03-5.2-16.04-7.38-6.01-2.18-12.15-4.56-18.41-7.14-6.27-2.58-12.41-5.6-18.41-9.08-6.01-3.47-11.35-7.87-16.04-13.19-4.69-5.32-8.45-11.86-11.29-19.61-2.84-7.75-4.26-17.1-4.26-28.08,0-10.17,1.65-19.85,4.95-29.05,3.3-9.2,8.15-17.22,14.55-24.08,6.4-6.86,14.39-12.35,23.96-16.46,9.57-4.12,20.62-6.17,33.16-6.17,13.99,0,26.73,2.83,38.21,8.47,11.48,5.65,21.05,13.07,28.71,22.27l-11.09,21.54Z"/><path class="cls-4" d="M1713.91,3401.82c0,5.17-.86,10.01-2.57,14.52-1.72,4.52-3.99,8.47-6.83,11.86-2.84,3.39-6.17,6.09-10,8.11-3.83,2.02-7.92,3.03-12.27,3.03s-8.22-1.01-11.98-3.03c-3.76-2.02-7.03-4.72-9.8-8.11-2.77-3.39-4.98-7.34-6.63-11.86-1.65-4.52-2.47-9.36-2.47-14.52s.82-10.33,2.47-15.01c1.65-4.68,3.86-8.71,6.63-12.1,2.77-3.39,6.04-6.09,9.8-8.11,3.76-2.02,7.75-3.03,11.98-3.03s8.44,1.01,12.27,3.03c3.83,2.02,7.16,4.72,10,8.11,2.84,3.39,5.11,7.42,6.83,12.1,1.71,4.68,2.57,9.68,2.57,15.01ZM1707.18,3474.2v248.35h-49.1v-248.35h49.1Z"/><path class="cls-4" d="M1935.26,3482.67v22.27c0,7.1-3.5,11.46-10.49,13.07l-18.22,4.11c2.77,8.56,4.16,17.91,4.16,28.08,0,12.27-2.01,23.36-6.04,33.28-4.03,9.92-9.6,18.36-16.73,25.29-7.13,6.94-15.54,12.31-25.24,16.1-9.7,3.79-20.17,5.69-31.38,5.69-3.96,0-7.79-.24-11.48-.73-3.7-.48-7.33-1.13-10.89-1.94-6.34,4.68-9.5,9.92-9.5,15.73,0,5,1.88,8.68,5.64,11.01,3.76,2.34,8.74,3.99,14.95,4.96,6.2.97,13.27,1.57,21.19,1.81,7.92.24,16.04.77,24.35,1.57,8.31.81,16.43,2.22,24.35,4.24,7.92,2.02,14.98,5.2,21.19,9.56,6.2,4.36,11.19,10.29,14.95,17.79,3.76,7.5,5.64,17.15,5.64,28.93,0,10.97-2.21,21.62-6.63,31.95-4.42,10.32-10.83,19.52-19.21,27.59-8.38,8.07-18.68,14.56-30.89,19.49-12.21,4.92-26.1,7.38-41.68,7.38s-28.64-1.82-40-5.45c-11.35-3.63-20.79-8.47-28.31-14.52-7.52-6.05-13.14-13.03-16.83-20.94-3.7-7.91-5.54-16.14-5.54-24.69,0-11.62,2.87-21.34,8.61-29.17,5.74-7.83,13.63-14.08,23.66-18.76-5.41-3.39-9.7-7.9-12.87-13.55-3.17-5.65-4.75-13.07-4.75-22.27,0-3.71.56-7.54,1.68-11.5,1.12-3.95,2.77-7.87,4.95-11.74s4.92-7.54,8.22-11.01c3.3-3.47,7.19-6.57,11.68-9.32-10.3-6.78-18.38-15.81-24.25-27.11-5.88-11.29-8.81-24.53-8.81-39.7,0-12.26,2.01-23.36,6.04-33.28,4.03-9.92,9.63-18.4,16.83-25.42,7.19-7.02,15.71-12.38,25.54-16.1,9.83-3.71,20.56-5.57,32.18-5.57,8.71,0,16.89,1.09,24.55,3.27,7.65,2.18,14.65,5.37,20.99,9.56h58.41ZM1886.56,3733.68c0-4.84-1.19-8.8-3.57-11.86s-5.61-5.45-9.7-7.14c-4.09-1.7-8.88-2.94-14.36-3.75-5.48-.81-11.29-1.41-17.42-1.82-6.14-.4-12.47-.76-19.01-1.09-6.53-.32-12.9-.97-19.11-1.94-5.41,3.71-9.8,8.07-13.17,13.07-3.36,5-5.05,10.81-5.05,17.43,0,4.36.89,8.43,2.67,12.22,1.78,3.79,4.62,7.06,8.52,9.8,3.89,2.74,8.94,4.88,15.15,6.41,6.2,1.53,13.79,2.3,22.77,2.3s16.96-.85,23.56-2.54c6.6-1.7,12.04-4.04,16.34-7.02,4.29-2.99,7.42-6.53,9.4-10.65,1.98-4.12,2.97-8.59,2.97-13.43ZM1831.32,3592.32c6.07,0,11.35-1.01,15.84-3.03,4.49-2.02,8.22-4.8,11.19-8.35,2.97-3.55,5.21-7.83,6.73-12.83,1.52-5,2.28-10.49,2.28-16.46,0-12.26-3-21.98-9.01-29.17-6.01-7.18-15.02-10.77-27.03-10.77s-21.02,3.59-27.03,10.77c-6.01,7.18-9.01,16.91-9.01,29.17,0,5.81.76,11.22,2.28,16.22,1.52,5,3.76,9.32,6.73,12.95,2.97,3.63,6.73,6.46,11.29,8.47,4.55,2.02,9.8,3.03,15.74,3.03Z"/><path class="cls-4" d="M2011.89,3504.69c4.09-5,8.42-9.64,12.97-13.92,4.55-4.27,9.37-7.9,14.45-10.89,5.08-2.99,10.52-5.33,16.33-7.02,5.81-1.69,12.14-2.54,19.01-2.54,11.09,0,20.92,2.3,29.5,6.9,8.58,4.6,15.74,11.05,21.48,19.36,5.74,8.31,10.1,18.24,13.07,29.77,2.97,11.54,4.45,24.25,4.45,38.12v158.06h-48.9v-158.06c0-15.17-2.84-26.9-8.52-35.22-5.68-8.31-14.32-12.47-25.94-12.47-8.45,0-16.37,2.34-23.76,7.02-7.39,4.68-14.39,11.05-20.99,19.12v179.6h-48.91v-248.35h29.9c6.34,0,10.49,3.63,12.47,10.89l3.36,19.61Z"/><path class="cls-4" d="M2189.49,3722.54v-248.35h29.9c6.34,0,10.49,3.63,12.47,10.89l3.17,18.4c3.57-4.84,7.29-9.28,11.19-13.31,3.89-4.03,8.05-7.5,12.47-10.41,4.42-2.9,9.17-5.2,14.25-6.9,5.08-1.69,10.66-2.54,16.73-2.54,12.8,0,23.33,4.24,31.58,12.71,8.25,8.47,14.42,19.73,18.51,33.77,3.17-8.23,7.13-15.29,11.88-21.18,4.75-5.89,9.96-10.69,15.64-14.4,5.67-3.71,11.71-6.45,18.12-8.23,6.4-1.77,12.84-2.66,19.31-2.66,11.22,0,21.18,2.1,29.9,6.29,8.71,4.2,16.04,10.33,21.98,18.4,5.94,8.07,10.46,17.91,13.56,29.53,3.1,11.62,4.65,24.93,4.65,39.94v158.06h-48.91v-158.06c0-15.81-2.84-27.72-8.51-35.7-5.68-7.99-13.99-11.98-24.95-11.98-5.02,0-9.67,1.05-13.96,3.15-4.29,2.1-8.05,5.12-11.29,9.08-3.23,3.96-5.77,8.92-7.62,14.89-1.85,5.97-2.77,12.83-2.77,20.57v158.06h-49.1v-158.06c0-16.62-2.74-28.72-8.22-36.31-5.48-7.58-13.5-11.38-24.06-11.38-7.13,0-13.76,2.14-19.9,6.41-6.14,4.28-11.85,10.13-17.13,17.55v181.78h-48.91Z"/><path class="cls-4" d="M2558.74,3605.87c.79,12.75,2.64,23.76,5.54,33.04,2.9,9.28,6.73,16.94,11.48,22.99,4.75,6.05,10.39,10.57,16.93,13.56,6.53,2.99,13.76,4.48,21.68,4.48s14.75-1.13,20.49-3.39c5.74-2.26,10.76-4.76,15.05-7.5,4.29-2.74,8.05-5.24,11.29-7.5,3.23-2.26,6.37-3.39,9.41-3.39,4.09,0,7.13,1.86,9.11,5.57l14.06,21.79c-5.41,7.75-11.48,14.24-18.22,19.48-6.73,5.25-13.76,9.44-21.09,12.59-7.33,3.15-14.78,5.36-22.37,6.66-7.59,1.29-14.95,1.94-22.08,1.94-14.13,0-27.26-2.87-39.4-8.59-12.14-5.73-22.7-14.2-31.68-25.42-8.98-11.21-16.04-25.09-21.19-41.63-5.15-16.54-7.72-35.7-7.72-57.49,0-16.94,2.24-32.88,6.73-47.81,4.49-14.92,10.92-27.92,19.3-38.97,8.38-11.05,18.61-19.81,30.69-26.26,12.08-6.45,25.71-9.68,40.89-9.68,12.8,0,24.62,2.5,35.44,7.5,10.82,5,20.13,12.31,27.92,21.91,7.79,9.6,13.89,21.38,18.31,35.34,4.42,13.96,6.63,29.89,6.63,47.81,0,9.04-.79,15.13-2.38,18.28-1.59,3.15-4.62,4.72-9.11,4.72h-125.73ZM2652,3569.81c0-7.75-.89-15.05-2.67-21.91-1.78-6.86-4.45-12.87-8.02-18.03-3.56-5.16-8.09-9.23-13.56-12.22-5.48-2.98-11.85-4.48-19.11-4.48-14.13,0-25.25,4.92-33.36,14.76-8.12,9.85-13.3,23.81-15.54,41.88h92.27Z"/><path class="cls-4" d="M2778.32,3504.69c4.09-5,8.42-9.64,12.97-13.92,4.55-4.27,9.37-7.9,14.45-10.89,5.08-2.99,10.52-5.33,16.33-7.02,5.81-1.69,12.14-2.54,19.01-2.54,11.09,0,20.92,2.3,29.5,6.9,8.58,4.6,15.74,11.05,21.48,19.36,5.74,8.31,10.1,18.24,13.07,29.77,2.97,11.54,4.45,24.25,4.45,38.12v158.06h-48.9v-158.06c0-15.17-2.84-26.9-8.52-35.22-5.68-8.31-14.32-12.47-25.94-12.47-8.45,0-16.37,2.34-23.76,7.02-7.39,4.68-14.39,11.05-20.99,19.12v179.6h-48.91v-248.35h29.9c6.34,0,10.49,3.63,12.47,10.89l3.36,19.61Z"/><path class="cls-4" d="M3020.86,3726.41c-17.69,0-31.25-6.09-40.69-18.27-9.44-12.18-14.16-29.01-14.16-50.47v-138.7h-20.79c-2.64,0-4.88-1.05-6.73-3.15-1.85-2.1-2.77-5.24-2.77-9.44v-23.72l32.67-6.54,10.3-67.77c.66-3.23,1.91-5.73,3.76-7.5,1.85-1.77,4.22-2.66,7.13-2.66h25.34v78.18h54.25v42.6h-54.25v134.58c0,7.75,1.55,13.8,4.65,18.15,3.1,4.36,7.36,6.54,12.77,6.54,3.03,0,5.57-.44,7.62-1.33,2.05-.88,3.83-1.81,5.35-2.78,1.52-.97,2.87-1.89,4.06-2.78,1.19-.88,2.38-1.33,3.56-1.33,1.45,0,2.64.45,3.57,1.33.92.89,1.91,2.22,2.97,3.99l14.65,29.05c-7.13,7.26-15.31,12.75-24.55,16.46-9.24,3.71-18.81,5.57-28.71,5.57Z"/><path class="cls-4" d="M3078.51,3713.08c0,.15-.02.3-.07.43-.05.13-.11.25-.19.35s-.17.18-.27.24c-.1.06-.22.09-.33.09s-.22-.03-.33-.09c-.1-.06-.19-.14-.27-.24-.07-.1-.13-.22-.18-.35-.04-.13-.07-.28-.07-.43s.02-.3.07-.44c.04-.14.1-.26.18-.36.08-.1.16-.18.27-.24.1-.06.21-.09.33-.09s.23.03.33.09c.1.06.19.14.27.24s.14.22.19.36c.05.14.07.28.07.44ZM3078.33,3715.21v7.33h-1.33v-7.33h1.33Z"/><path class="cls-4" d="M3080.94,3716.21c.22-.34.48-.61.77-.82.29-.21.62-.31,1.01-.31.3,0,.58.08.82.25.25.17.46.41.64.72.18.32.32.71.42,1.17s.15,1,.15,1.6c0,.55-.06,1.05-.17,1.52s-.27.87-.48,1.21c-.21.34-.45.61-.75.8s-.62.29-.98.29c-.31,0-.57-.06-.79-.19-.22-.13-.41-.3-.59-.52v3h-1.33v-9.72h.81c.17,0,.29.11.34.32l.11.68ZM3081.01,3720.64c.15.24.32.41.49.51s.37.15.58.15.38-.05.54-.15.3-.25.41-.46c.11-.2.2-.46.26-.77.06-.31.09-.68.09-1.1s-.03-.79-.08-1.09c-.05-.3-.13-.54-.22-.72-.1-.19-.22-.32-.35-.41-.14-.09-.29-.13-.47-.13-.27,0-.51.08-.7.23-.19.15-.38.37-.55.65v3.29Z"/><path class="cls-4" d="M3089.14,3716.64c-.04.08-.07.13-.11.16-.04.03-.09.05-.15.05s-.13-.02-.21-.07c-.07-.05-.16-.1-.26-.16-.1-.06-.21-.11-.33-.16-.12-.05-.27-.07-.44-.07-.26,0-.47.07-.61.22-.15.15-.22.34-.22.58,0,.16.04.29.12.4.08.11.18.2.31.28.13.08.27.15.43.22.16.06.32.13.49.21.17.08.33.16.49.26.16.1.3.22.43.37.13.15.23.33.3.54s.12.46.12.76c0,.35-.05.68-.14.98-.1.3-.24.55-.42.77-.19.22-.42.39-.69.51-.27.12-.59.18-.95.18-.19,0-.37-.02-.55-.07-.18-.04-.36-.11-.52-.19s-.32-.18-.46-.29c-.14-.11-.27-.23-.37-.36l.3-.67c.04-.08.09-.14.14-.19s.12-.06.2-.06.16.03.23.09.16.13.26.2c.1.07.21.14.34.2.13.06.3.09.5.09.16,0,.29-.02.4-.08.11-.05.2-.12.28-.2.07-.08.13-.18.16-.28.03-.11.05-.22.05-.33,0-.17-.04-.31-.12-.42-.08-.11-.18-.2-.3-.29-.13-.08-.27-.15-.43-.22-.16-.06-.33-.14-.5-.21-.17-.08-.34-.17-.5-.27-.16-.1-.31-.23-.43-.39-.13-.16-.23-.35-.31-.58-.08-.23-.12-.5-.12-.83,0-.3.04-.58.13-.86s.22-.51.39-.71c.17-.2.39-.36.65-.49s.56-.18.9-.18c.38,0,.72.08,1.04.25s.57.39.78.66l-.3.64Z"/><path class="cls-4" d="M3095.24,3715.21v7.33h-.81c-.17,0-.29-.11-.33-.32l-.09-.59c-.23.31-.47.55-.75.74s-.59.28-.96.28c-.3,0-.57-.07-.8-.2-.23-.14-.43-.33-.58-.58-.16-.25-.28-.54-.36-.88-.08-.34-.12-.71-.12-1.12v-4.66h1.33v4.66c0,.45.08.79.23,1.04s.39.37.7.37c.23,0,.44-.07.64-.2.2-.14.39-.32.57-.56v-5.3h1.33Z"/><path class="cls-4" d="M3096.55,3722.54v-7.33h.81c.17,0,.29.11.34.32l.09.54c.1-.14.2-.27.3-.39.1-.12.22-.22.34-.31.12-.09.25-.15.39-.2s.29-.07.45-.07c.35,0,.63.12.86.37.22.25.39.58.5,1,.09-.24.19-.45.32-.63.13-.17.27-.31.42-.42.15-.11.32-.19.49-.24.17-.05.35-.08.52-.08.3,0,.58.06.81.19.24.12.43.3.59.54.16.24.28.53.37.87.08.34.13.74.13,1.18v4.66h-1.33v-4.66c0-.47-.08-.82-.23-1.05-.16-.24-.38-.35-.68-.35-.14,0-.26.03-.38.09-.12.06-.22.15-.31.27s-.16.26-.21.44c-.05.18-.07.38-.07.61v4.66h-1.33v-4.66c0-.49-.07-.85-.22-1.07-.15-.22-.36-.34-.65-.34-.19,0-.37.06-.54.19-.17.13-.32.3-.46.52v5.36h-1.33Z"/></g></svg>